<?xml version="1.0" encoding="utf-8"?>
<!-- Generator: Adobe Illustrator 25.2.3, SVG Export Plug-In . SVG Version: 6.00 Build 0)  -->
<svg version="1.1" id="Layer_1" xmlns="http://www.w3.org/2000/svg" xmlns:xlink="http://www.w3.org/1999/xlink" x="0px" y="0px"
	 viewBox="0 0 397.1 23.1" style="enable-background:new 0 0 397.1 23.1;" xml:space="preserve">
<style type="text/css">
	.st0{fill:#060707;}
</style>
<g>
	<path class="st0" d="M216.8,0.3c-0.4,2.4-1.2,5.8-2,7.7l1.9-0.2c0.9-1.5,2.3-5,3.1-7.8L216.8,0.3z"/>
	<g>
		<path class="st0" d="M13.6,21.5c1.4-1.1,2.1-2.6,2.1-4.5c0-1.2-0.3-2.2-1-3.1c-0.7-0.8-1.8-1.7-3.3-2.6L7.4,8.9
			C6.8,8.6,6.4,8.3,6,8C5.5,7.8,5.2,7.5,4.9,7.1c-0.3-0.3-0.5-0.6-0.7-1C4,5.8,3.9,5.4,3.9,4.9c0-1,0.3-1.8,1-2.3
			C5.7,2,6.6,1.7,7.8,1.7c1.7,0,3,0.5,4,1.4c1,1,1.7,2.6,2.1,4.9h1V4.2c0-0.6-0.2-1.2-0.7-1.7c-0.4-0.5-1-0.9-1.7-1.3
			c-0.7-0.3-1.5-0.6-2.4-0.8C9.2,0.3,8.3,0.2,7.4,0.2C5.2,0.2,3.4,0.7,2,1.7c-1.3,1-2,2.4-2,4.1C0,7.1,0.3,8.1,1,9.1
			c0.6,0.9,1.7,1.8,3.2,2.7l4.1,2.4c1.1,0.6,1.9,1.3,2.5,1.9c0.6,0.6,0.9,1.4,0.9,2.4c0,1.1-0.4,1.9-1.1,2.4c-0.8,0.5-1.8,0.8-3,0.8
			c-1.8,0-3.3-0.5-4.4-1.4c-1.1-1-1.8-2.6-2.1-4.9H0v3.9c0,0.6,0.2,1.2,0.7,1.7c0.4,0.5,1,0.9,1.7,1.3c0.7,0.3,1.5,0.6,2.4,0.8
			c0.9,0.2,1.8,0.3,2.7,0.3C10.1,23.1,12.2,22.6,13.6,21.5z"/>
		<path class="st0" d="M23.7,20c-0.7-0.9-1-2.5-1-4.6h10c0-0.2,0-0.4,0.1-0.7c0-0.2,0-0.4,0-0.7c0-0.3,0-0.5,0-0.7
			c0-1-0.2-1.9-0.6-2.7c-0.4-0.8-0.9-1.5-1.5-2.1c-0.7-0.6-1.4-1-2.3-1.3c-0.9-0.3-1.8-0.5-2.9-0.5c-1,0-2,0.2-2.9,0.5
			c-0.9,0.4-1.6,0.9-2.3,1.5c-0.7,0.7-1.2,1.5-1.5,2.5c-0.4,1-0.6,2.2-0.6,3.5c0,1.2,0.2,2.2,0.5,3.2c0.4,1,0.9,1.8,1.5,2.6
			s1.5,1.3,2.4,1.7c0.9,0.4,2,0.6,3.2,0.6c0.9,0,1.7-0.1,2.4-0.3c0.7-0.2,1.3-0.5,1.8-0.8c0.5-0.3,0.9-0.7,1.3-1.1
			c0.3-0.4,0.6-0.8,0.9-1.2l-1-0.8c-0.6,0.8-1.2,1.4-1.9,1.9c-0.7,0.5-1.6,0.8-2.8,0.8C25.2,21.4,24.4,21,23.7,20z M22.7,13.9
			c0-1.1,0.1-2,0.2-2.7c0.2-0.7,0.4-1.3,0.6-1.7c0.3-0.4,0.6-0.8,0.9-0.9c0.3-0.2,0.7-0.3,1.1-0.3c0.4,0,0.8,0.1,1.1,0.3
			C27,8.7,27.3,9,27.5,9.5c0.2,0.4,0.4,1,0.6,1.7c0.1,0.7,0.2,1.6,0.2,2.7H22.7z"/>
		<path class="st0" d="M41.8,22.9H43l7-15.8h-1.8l-4.5,10.1l-2.9-6.3C40.4,10,40,9.3,39.5,8.8c-0.5-0.5-1-1-1.5-1.3
			c-0.5-0.3-1.1-0.5-1.7-0.6c-0.6-0.1-1.2-0.2-1.9-0.2c-0.2,0-0.4,0-0.7,0c-0.3,0-0.5,0-0.6,0v0.7c0.6,0,1,0.3,1.5,0.8
			c0.4,0.5,0.9,1.4,1.5,2.6L41.8,22.9z"/>
		<path class="st0" d="M56.1,1.7c-0.4-0.5-1-0.8-1.9-0.8c-0.5,0-0.9,0.2-1.3,0.5c-0.4,0.3-0.5,0.8-0.5,1.4c0,0.7,0.2,1.2,0.6,1.7
			c0.4,0.5,1,0.8,1.9,0.8c0.5,0,0.9-0.2,1.3-0.5c0.4-0.3,0.5-0.8,0.5-1.4C56.7,2.8,56.5,2.2,56.1,1.7z M52.8,22.6h4.3V11.4
			c0-0.8,0-1.5-0.1-2c-0.1-0.5-0.2-1-0.5-1.3c-0.2-0.3-0.5-0.6-0.9-0.7c-0.4-0.1-0.9-0.2-1.4-0.2h-4v1h0.3c1,0,1.6,0.3,1.9,0.9
			c0.3,0.6,0.4,1.4,0.4,2.4V22.6z"/>
		<path class="st0" d="M65.1,8.3c-0.2-0.5-0.6-0.8-1.1-1c-0.5-0.2-1.1-0.3-1.7-0.3H59v1h0.3c0.5,0,0.9,0.1,1.2,0.2
			c0.3,0.2,0.5,0.4,0.7,0.7c0.2,0.3,0.3,0.6,0.3,1.1c0.1,0.4,0.1,0.9,0.1,1.3v11.2h4.3V11.4c0-0.3,0-0.5,0-0.7
			c0-0.2-0.1-0.4-0.1-0.6c0-0.2-0.1-0.3-0.1-0.5c0.2-0.3,0.6-0.6,1.1-0.9c0.5-0.3,1-0.4,1.5-0.4c0.7,0,1.4,0.3,1.9,1
			c0.5,0.7,0.8,1.8,0.8,3.4v9.8h4.3v-9.8c0-0.6,0-1.1-0.1-1.5c-0.1-0.4-0.1-0.7-0.2-1c-0.1-0.3-0.2-0.5-0.3-0.7
			c0.3-0.4,0.7-0.7,1.2-0.9c0.5-0.2,1.1-0.4,1.7-0.4c0.7,0,1.4,0.3,1.9,1c0.5,0.7,0.8,1.8,0.8,3.4v9.8h4.3v-9.8
			c0-2.1-0.5-3.7-1.5-4.6c-1-1-2.4-1.4-4.3-1.4c-1.3,0-2.3,0.2-3,0.6C75,7.7,74.4,8.1,74,8.6c-0.1-0.2-0.3-0.3-0.6-0.5
			c-0.3-0.2-0.6-0.4-1-0.6C72,7.3,71.6,7.1,71.1,7c-0.5-0.1-1.1-0.2-1.7-0.2c-1,0-1.8,0.2-2.5,0.5c-0.7,0.4-1.2,0.7-1.6,1.1H65.1z"
			/>
		<path class="st0" d="M88.4,22.6h4.3V5.1c0-0.8,0-1.5-0.1-2c-0.1-0.5-0.2-1-0.5-1.3c-0.2-0.3-0.5-0.6-0.9-0.7
			c-0.4-0.1-0.9-0.2-1.4-0.2h-4v1h0.3c1,0,1.6,0.3,1.9,0.9c0.3,0.6,0.4,1.4,0.4,2.4V22.6z"/>
		<path class="st0" d="M100.8,1.7c-0.4-0.5-1-0.8-1.9-0.8c-0.5,0-0.9,0.2-1.3,0.5c-0.4,0.3-0.5,0.8-0.5,1.4c0,0.7,0.2,1.2,0.6,1.7
			c0.4,0.5,1,0.8,1.9,0.8c0.5,0,0.9-0.2,1.3-0.5c0.4-0.3,0.5-0.8,0.5-1.4C101.4,2.8,101.2,2.2,100.8,1.7z M97.5,22.6h4.3V11.4
			c0-0.8,0-1.5-0.1-2c-0.1-0.5-0.2-1-0.5-1.3c-0.2-0.3-0.5-0.6-0.9-0.7c-0.4-0.1-0.9-0.2-1.4-0.2h-4v1h0.3c1,0,1.6,0.3,1.9,0.9
			c0.3,0.6,0.4,1.4,0.4,2.4V22.6z"/>
		<path class="st0" d="M123.9,9.3c0.6,0.7,0.9,1.8,0.9,3.4v9.8h4.3v-9.8c0-2.1-0.5-3.7-1.6-4.6c-1.1-1-2.6-1.4-4.7-1.4
			c-0.7,0-1.3,0-1.8,0.1c-0.5,0.1-1,0.2-1.3,0.4c-0.4,0.1-0.7,0.3-1,0.5c-0.3,0.2-0.5,0.4-0.7,0.5c-0.2-0.4-0.6-0.8-1-0.9
			c-0.4-0.2-1-0.3-1.8-0.3H112v1h0.3c0.5,0,0.9,0.1,1.2,0.2c0.3,0.2,0.5,0.4,0.7,0.7c0.2,0.3,0.3,0.6,0.3,1.1
			c0.1,0.4,0.1,0.9,0.1,1.3v11.2h4.3V11.1c0-0.3,0-0.5,0-0.7c0-0.2-0.1-0.4-0.1-0.6c0-0.2-0.1-0.3-0.1-0.5c0.3-0.3,0.7-0.5,1.2-0.7
			c0.5-0.2,1.1-0.3,1.8-0.3C122.6,8.3,123.3,8.7,123.9,9.3z"/>
		<path class="st0" d="M143.3,17.4c-0.1,0.8-0.4,1.5-0.6,2.1c-0.3,0.6-0.7,1.1-1.1,1.4c-0.4,0.3-0.9,0.5-1.5,0.5
			c-0.6,0-1.1-0.2-1.5-0.5c-0.4-0.3-0.8-0.8-1.1-1.4c-0.3-0.6-0.5-1.3-0.6-2.1c-0.1-0.8-0.2-1.7-0.2-2.6c0-0.9,0.1-1.8,0.2-2.6
			c0.1-0.8,0.4-1.5,0.6-2.1c0.3-0.6,0.7-1.1,1.1-1.4c0.4-0.3,0.9-0.5,1.5-0.5c0.6,0,1.1,0.2,1.5,0.5c0.4,0.3,0.8,0.8,1.1,1.4
			c0.3,0.6,0.5,1.3,0.6,2.1c0.1,0.8,0.2,1.7,0.2,2.6C143.5,15.8,143.5,16.6,143.3,17.4z M132.7,18c0.4,1,0.9,1.8,1.6,2.6
			c0.7,0.7,1.5,1.3,2.5,1.7c1,0.4,2.1,0.6,3.3,0.6c1.2,0,2.3-0.2,3.3-0.6c1-0.4,1.8-1,2.5-1.7c0.7-0.7,1.2-1.6,1.6-2.6
			c0.4-1,0.5-2,0.5-3.2c0-1.1-0.2-2.2-0.5-3.2c-0.4-1-0.9-1.8-1.6-2.6c-0.7-0.7-1.5-1.3-2.5-1.7c-1-0.4-2.1-0.6-3.3-0.6
			c-1.2,0-2.3,0.2-3.3,0.6c-1,0.4-1.8,1-2.5,1.7c-0.7,0.7-1.2,1.6-1.6,2.6s-0.5,2-0.5,3.2C132.1,15.9,132.3,17,132.7,18z"/>
		<path class="st0" d="M153.3,7.1c-0.6,0-1,0.1-1.4,0.2c-0.4,0.2-0.7,0.4-0.9,0.6c-0.2,0.2-0.4,0.5-0.4,0.8c-0.1,0.3-0.1,0.6-0.1,1
			v2h1c0-1.1,0.3-1.9,0.8-2.4c0.6-0.5,1.5-0.8,3-0.8h3.9l-8.7,13v1h13.9v-1.5h-8.7l9.4-14H153.3z"/>
		<path class="st0" d="M166.7,15.4h9.2v-3.1h-9.2V15.4z"/>
		<path class="st0" d="M189.9,9.3c0.6,0.7,0.9,1.8,0.9,3.4v9.8h4.3v-9.8c0-2.1-0.5-3.7-1.6-4.6c-1.1-1-2.6-1.4-4.7-1.4
			c-0.7,0-1.3,0-1.8,0.1c-0.5,0.1-1,0.2-1.3,0.4c-0.4,0.1-0.7,0.3-1,0.5c-0.3,0.2-0.5,0.4-0.7,0.5c-0.2-0.4-0.6-0.8-1-0.9
			c-0.4-0.2-1-0.3-1.8-0.3h-3.3v1h0.3c0.5,0,0.9,0.1,1.2,0.2c0.3,0.2,0.5,0.4,0.7,0.7c0.2,0.3,0.3,0.6,0.3,1.1
			c0.1,0.4,0.1,0.9,0.1,1.3v11.2h4.3V11.1c0-0.3,0-0.5,0-0.7c0-0.2-0.1-0.4-0.1-0.6c0-0.2-0.1-0.3-0.1-0.5c0.3-0.3,0.7-0.5,1.2-0.7
			c0.5-0.2,1.1-0.3,1.8-0.3C188.5,8.3,189.3,8.7,189.9,9.3z"/>
		<path class="st0" d="M203.6,20c-0.7-0.9-1-2.5-1-4.6h10c0-0.2,0-0.4,0.1-0.7c0-0.2,0-0.4,0-0.7c0-0.3,0-0.5,0-0.7
			c0-1-0.2-1.9-0.6-2.7c-0.4-0.8-0.9-1.5-1.5-2.1c-0.7-0.6-1.4-1-2.3-1.3c-0.9-0.3-1.8-0.5-2.9-0.5c-1,0-2,0.2-2.9,0.5
			c-0.9,0.4-1.6,0.9-2.3,1.5c-0.7,0.7-1.2,1.5-1.5,2.5c-0.4,1-0.6,2.2-0.6,3.5c0,1.2,0.2,2.2,0.5,3.2c0.4,1,0.9,1.8,1.5,2.6
			s1.5,1.3,2.4,1.7c0.9,0.4,2,0.6,3.2,0.6c0.9,0,1.7-0.1,2.4-0.3c0.7-0.2,1.3-0.5,1.8-0.8c0.5-0.3,0.9-0.7,1.3-1.1
			c0.3-0.4,0.6-0.8,0.9-1.2l-1-0.8c-0.6,0.8-1.2,1.4-1.9,1.9c-0.7,0.5-1.6,0.8-2.8,0.8C205.1,21.4,204.3,21,203.6,20z M202.6,13.9
			c0-1.1,0.1-2,0.2-2.7c0.2-0.7,0.4-1.3,0.6-1.7c0.3-0.4,0.6-0.8,0.9-0.9c0.3-0.2,0.7-0.3,1.1-0.3c0.4,0,0.8,0.1,1.1,0.3
			c0.3,0.2,0.6,0.5,0.9,0.9c0.2,0.4,0.4,1,0.6,1.7c0.1,0.7,0.2,1.6,0.2,2.7H202.6z"/>
		<path class="st0" d="M226.7,8.3c-0.2-0.5-0.6-0.8-1.1-1c-0.5-0.2-1.1-0.3-1.7-0.3h-3.3v1h0.3c0.5,0,0.9,0.1,1.2,0.2
			c0.3,0.2,0.5,0.4,0.7,0.7c0.2,0.3,0.3,0.6,0.3,1.1c0.1,0.4,0.1,0.9,0.1,1.3v11.2h4.3V11.4c0-0.3,0-0.5,0-0.7
			c0-0.2-0.1-0.4-0.1-0.6c0-0.2-0.1-0.3-0.1-0.5c0.2-0.3,0.6-0.6,1.1-0.9c0.5-0.3,1-0.4,1.5-0.4c0.7,0,1.4,0.3,1.9,1
			c0.5,0.7,0.8,1.8,0.8,3.4v9.8h4.3v-9.8c0-0.6,0-1.1-0.1-1.5c-0.1-0.4-0.1-0.7-0.2-1c-0.1-0.3-0.2-0.5-0.3-0.7
			c0.3-0.4,0.7-0.7,1.2-0.9c0.5-0.2,1.1-0.4,1.7-0.4c0.7,0,1.4,0.3,1.9,1c0.5,0.7,0.8,1.8,0.8,3.4v9.8h4.3v-9.8
			c0-2.1-0.5-3.7-1.5-4.6c-1-1-2.4-1.4-4.3-1.4c-1.3,0-2.3,0.2-3,0.6c-0.7,0.4-1.3,0.8-1.7,1.3c-0.1-0.2-0.3-0.3-0.6-0.5
			c-0.3-0.2-0.6-0.4-1-0.6c-0.4-0.2-0.8-0.4-1.3-0.5c-0.5-0.1-1.1-0.2-1.7-0.2c-1,0-1.8,0.2-2.5,0.5c-0.7,0.4-1.2,0.7-1.6,1.1H226.7
			z"/>
		<path class="st0" d="M258.3,19.2c-0.2,0.4-0.4,0.8-0.7,1.1c-0.2,0.3-0.5,0.5-0.9,0.7c-0.3,0.2-0.8,0.3-1.3,0.3
			c-0.7,0-1.2-0.2-1.6-0.7c-0.4-0.5-0.6-1.2-0.6-2.1c0-1.2,0.3-2.1,1-2.6c0.7-0.6,1.8-0.9,3.4-0.9h0.5V19.2z M252.8,7
			c-0.9,0.2-1.6,0.5-2,0.9c-0.4,0.4-0.6,1-0.7,1.5c-0.1,0.6-0.1,1.2-0.1,1.7h1.8c0.1-0.6,0.3-1.1,0.5-1.5c0.2-0.4,0.5-0.7,0.8-0.9
			c0.3-0.2,0.6-0.4,0.9-0.4c0.3-0.1,0.7-0.1,1.1-0.1c1,0,1.8,0.4,2.3,1.2c0.6,0.8,0.8,2.1,0.8,4.1h-0.5c-1.8,0-3.3,0.1-4.4,0.3
			c-1.1,0.2-2.1,0.5-2.7,1c-0.7,0.4-1.1,0.9-1.4,1.5c-0.3,0.6-0.4,1.3-0.4,2.1c0,1.3,0.5,2.4,1.4,3.2c1,0.8,2.4,1.2,4.2,1.2
			c0.7,0,1.3-0.1,1.8-0.3c0.5-0.2,0.9-0.4,1.2-0.6c0.4-0.3,0.7-0.6,0.9-0.9h0.2l1.2,1.5h2.8v-8.9c0-2.3-0.6-4.1-1.8-5.2
			c-1.2-1.1-2.8-1.7-5-1.7C254.7,6.8,253.7,6.8,252.8,7z"/>
		<path class="st0" d="M271.3,2.1h-2.6l-1.7,2v3h-2v1.5h2v9.5c0,1.6,0.4,2.8,1.3,3.6c0.8,0.8,2,1.2,3.5,1.2c0.7,0,1.4-0.1,1.9-0.2
			c0.5-0.2,1-0.3,1.3-0.5c0.4-0.2,0.7-0.5,1-0.7l-0.5-0.9c-0.2,0.2-0.5,0.3-0.8,0.5c-0.2,0.1-0.5,0.2-0.8,0.3
			c-0.3,0.1-0.7,0.1-1,0.1c-0.6,0-1-0.2-1.3-0.6c-0.3-0.4-0.4-1.3-0.4-2.5V8.6h3.6V7.1h-3.6V2.1z"/>
		<path class="st0" d="M278.1,22.6h4.3V5.1c0-0.8,0-1.5-0.1-2c-0.1-0.5-0.2-1-0.5-1.3c-0.2-0.3-0.5-0.6-0.9-0.7
			c-0.4-0.1-0.9-0.2-1.4-0.2h-4v1h0.3c1,0,1.6,0.3,1.9,0.9c0.3,0.6,0.4,1.4,0.4,2.4V22.6z"/>
		<path class="st0" d="M294.9,19.2c-0.2,0.4-0.4,0.8-0.7,1.1c-0.2,0.3-0.5,0.5-0.9,0.7c-0.3,0.2-0.8,0.3-1.3,0.3
			c-0.7,0-1.2-0.2-1.6-0.7c-0.4-0.5-0.6-1.2-0.6-2.1c0-1.2,0.3-2.1,1-2.6c0.7-0.6,1.8-0.9,3.4-0.9h0.5V19.2z M289.4,7
			c-0.9,0.2-1.6,0.5-2,0.9c-0.4,0.4-0.6,1-0.7,1.5c-0.1,0.6-0.1,1.2-0.1,1.7h1.8c0.1-0.6,0.3-1.1,0.5-1.5c0.2-0.4,0.5-0.7,0.8-0.9
			c0.3-0.2,0.6-0.4,0.9-0.4c0.3-0.1,0.7-0.1,1.1-0.1c1,0,1.8,0.4,2.3,1.2c0.6,0.8,0.8,2.1,0.8,4.1h-0.5c-1.8,0-3.3,0.1-4.4,0.3
			c-1.1,0.2-2.1,0.5-2.7,1c-0.7,0.4-1.1,0.9-1.4,1.5c-0.3,0.6-0.4,1.3-0.4,2.1c0,1.3,0.5,2.4,1.4,3.2c1,0.8,2.4,1.2,4.2,1.2
			c0.7,0,1.3-0.1,1.8-0.3c0.5-0.2,0.9-0.4,1.2-0.6c0.4-0.3,0.7-0.6,0.9-0.9h0.2l1.2,1.5h2.8v-8.9c0-2.3-0.6-4.1-1.8-5.2
			c-1.2-1.1-2.8-1.7-5-1.7C291.3,6.8,290.3,6.8,289.4,7z"/>
		<path class="st0" d="M308.6,7.3c-0.7,0.3-1.2,0.7-1.6,1c-0.2-0.4-0.6-0.8-1-0.9c-0.4-0.2-1-0.3-1.8-0.3h-3.3v1h0.3
			c0.5,0,0.9,0.1,1.2,0.2c0.3,0.2,0.5,0.4,0.7,0.7c0.2,0.3,0.3,0.6,0.3,1.1c0.1,0.4,0.1,0.9,0.1,1.3v11.2h4.3V11.5
			c0-0.2,0-0.4,0-0.6c0-0.2,0-0.4,0-0.5c0-0.2,0-0.3-0.1-0.5c0.3-0.3,0.7-0.5,1.2-0.7c0.5-0.2,1.1-0.3,1.8-0.3c0.4,0,0.7,0.1,1,0.2
			c0.3,0.1,0.5,0.3,0.7,0.5c0.2,0.2,0.4,0.4,0.6,0.6l1.7-1.3c-0.1-0.2-0.2-0.4-0.3-0.5c-0.1-0.2-0.2-0.3-0.3-0.5
			c-0.1-0.2-0.3-0.3-0.5-0.5c-0.6-0.4-1.4-0.7-2.3-0.7C310.2,6.8,309.3,6.9,308.6,7.3z"/>
	</g>
	<g>
		<path class="st0" d="M330,2.1h-2.6l-1.7,2v3h-2v1.5h2v9.5c0,1.6,0.4,2.8,1.3,3.6c0.8,0.8,2,1.2,3.5,1.2c0.7,0,1.4-0.1,1.9-0.2
			c0.5-0.2,1-0.3,1.3-0.5c0.4-0.2,0.7-0.5,1-0.7l-0.5-0.9c-0.2,0.2-0.5,0.3-0.8,0.5c-0.2,0.1-0.5,0.2-0.8,0.3
			c-0.3,0.1-0.7,0.1-1,0.1c-0.6,0-1-0.2-1.3-0.6c-0.3-0.4-0.4-1.3-0.4-2.5V8.6h3.6V7.1H330V2.1z"/>
		<path class="st0" d="M345.1,19.2c-0.2,0.4-0.4,0.8-0.7,1.1c-0.2,0.3-0.5,0.5-0.9,0.7c-0.3,0.2-0.8,0.3-1.3,0.3
			c-0.7,0-1.2-0.2-1.6-0.7c-0.4-0.5-0.6-1.2-0.6-2.1c0-1.2,0.3-2.1,1-2.6c0.7-0.6,1.8-0.9,3.4-0.9h0.5V19.2z M339.6,7
			c-0.9,0.2-1.6,0.5-2,0.9c-0.4,0.4-0.6,1-0.7,1.5c-0.1,0.6-0.1,1.2-0.1,1.7h1.8c0.1-0.6,0.3-1.1,0.5-1.5c0.2-0.4,0.5-0.7,0.8-0.9
			c0.3-0.2,0.6-0.4,0.9-0.4c0.3-0.1,0.7-0.1,1.1-0.1c1,0,1.8,0.4,2.3,1.2c0.6,0.8,0.8,2.1,0.8,4.1h-0.5c-1.8,0-3.3,0.1-4.4,0.3
			c-1.1,0.2-2.1,0.5-2.7,1c-0.7,0.4-1.1,0.9-1.4,1.5c-0.3,0.6-0.4,1.3-0.4,2.1c0,1.3,0.5,2.4,1.4,3.2c1,0.8,2.4,1.2,4.2,1.2
			c0.7,0,1.3-0.1,1.8-0.3c0.5-0.2,0.9-0.4,1.2-0.6c0.4-0.3,0.7-0.6,0.9-0.9h0.2l1.2,1.5h2.8v-8.9c0-2.3-0.6-4.1-1.8-5.2
			c-1.2-1.1-2.8-1.7-5-1.7C341.5,6.8,340.5,6.8,339.6,7z"/>
		<path class="st0" d="M358.8,7.3c-0.7,0.3-1.2,0.7-1.6,1c-0.2-0.4-0.6-0.8-1-0.9c-0.4-0.2-1-0.3-1.8-0.3h-3.3v1h0.3
			c0.5,0,0.9,0.1,1.2,0.2c0.3,0.2,0.5,0.4,0.7,0.7c0.2,0.3,0.3,0.6,0.3,1.1c0.1,0.4,0.1,0.9,0.1,1.3v11.2h4.3V11.5
			c0-0.2,0-0.4,0-0.6c0-0.2,0-0.4,0-0.5c0-0.2,0-0.3-0.1-0.5c0.3-0.3,0.7-0.5,1.2-0.7c0.5-0.2,1.1-0.3,1.8-0.3c0.4,0,0.7,0.1,1,0.2
			c0.3,0.1,0.5,0.3,0.7,0.5c0.2,0.2,0.4,0.4,0.6,0.6l1.7-1.3c-0.1-0.2-0.2-0.4-0.3-0.5c-0.1-0.2-0.2-0.3-0.3-0.5
			c-0.1-0.2-0.3-0.3-0.5-0.5c-0.6-0.4-1.4-0.7-2.3-0.7C360.4,6.8,359.5,6.9,358.8,7.3z"/>
		<path class="st0" d="M370.9,1.7c-0.4-0.5-1-0.8-1.9-0.8c-0.5,0-0.9,0.2-1.3,0.5c-0.4,0.3-0.5,0.8-0.5,1.4c0,0.7,0.2,1.2,0.6,1.7
			c0.4,0.5,1,0.8,1.9,0.8c0.5,0,0.9-0.2,1.3-0.5c0.4-0.3,0.5-0.8,0.5-1.4C371.5,2.8,371.3,2.2,370.9,1.7z M367.5,22.6h4.3V11.4
			c0-0.8,0-1.5-0.1-2c-0.1-0.5-0.2-1-0.5-1.3c-0.2-0.3-0.5-0.6-0.9-0.7c-0.4-0.1-0.9-0.2-1.4-0.2h-4v1h0.3c1,0,1.6,0.3,1.9,0.9
			c0.3,0.6,0.4,1.4,0.4,2.4V22.6z"/>
		<path class="st0" d="M374.5,22.6h2.2l4.3-5.3l1.6,2.7c0.5,0.8,1,1.5,1.7,1.9c0.6,0.5,1.5,0.7,2.6,0.7h3.1v-0.7
			c-0.5-0.1-1-0.4-1.6-0.8c-0.5-0.4-1-1.1-1.5-1.8l-3.2-5.3l5.6-6.9h-2.2l-4.3,5.3l-1.6-2.7c-0.5-0.8-1-1.5-1.7-1.9
			c-0.6-0.5-1.5-0.7-2.6-0.7h-3.1v0.7c0.5,0.1,1,0.4,1.6,0.8c0.5,0.4,1,1.1,1.5,1.8l3.2,5.3L374.5,22.6z"/>
		<path class="st0" d="M396.1,1.7c-0.4-0.5-1-0.8-1.9-0.8c-0.5,0-0.9,0.2-1.3,0.5c-0.4,0.3-0.5,0.8-0.5,1.4c0,0.7,0.2,1.2,0.6,1.7
			c0.4,0.5,1,0.8,1.9,0.8c0.5,0,0.9-0.2,1.3-0.5c0.4-0.3,0.5-0.8,0.5-1.4C396.7,2.8,396.5,2.2,396.1,1.7z M392.8,22.6h4.3V11.4
			c0-0.8,0-1.5-0.1-2c-0.1-0.5-0.2-1-0.5-1.3c-0.2-0.3-0.5-0.6-0.9-0.7c-0.4-0.1-0.9-0.2-1.4-0.2h-4v1h0.3c1,0,1.6,0.3,1.9,0.9
			c0.3,0.6,0.4,1.4,0.4,2.4V22.6z"/>
	</g>
</g>
</svg>
