<svg version="1.1" id="Layer_1" xmlns="http://www.w3.org/2000/svg" x="0" y="0" viewBox="0 0 241 68" style="enable-background:new 0 0 241 68" xml:space="preserve"><style>.st0{fill:#e20613}</style><path class="st0" d="M199.5 67.8c14.6 0 20.6-9.9 22.6-15.8L241 0H41.5C26.9 0 21 9.8 18.9 15.8L0 67.8h199.5"/><path d="M41.5 6.2c-6.9 0-13.6 2.9-16.7 11.7L8.9 61.6h190.6c6.9 0 13.6-2.9 16.7-11.7l15.9-43.8H41.5" style="fill:#fff"/><path d="M209 26.5h10.4l5.2-14.4s-1-.4-2.8-.8c-1.8-.4-4.5-.8-8-.8-10.6 0-13.1 2.8-16.4 12.1-2.7 7.5-1 10.1 2.4 13.5 2.4 2.4 4.3 3.8 2.8 7.6l-1.9 4.8c-.4 1.1-.9 1.7-1.6 1.7-1.1 0-1.2-.7-.7-1.9l2.9-7.6H191L185.4 56s1.5.4 3.5.7c2.1.3 4.9.7 7.7.7 10.7 0 12.8-3 15.9-11.6 2.8-7.8 1.8-11-2.4-15.1-2.9-2.8-3.6-4-2.5-7.1l1.2-3.2c.5-1.3.8-1.6 1.7-1.7.7 0 1.1.4.6 1.7l-2.1 6.1M187.7 37c-.3-.6-.7-1.3-1.2-1.9.1 0 .4-.1.6-.2 2.7-1.1 4.8-3.3 5.9-6l2.5-6.8c2.5-6.7-.1-10.9-6.5-11h-12.3l-16.8 45.5h10.3l6.9-18.9h.1c1.2 0 1.6 1.2.7 3.7l-5.2 15.2h10.1l4.8-13.8c1-2.5.6-4.5.1-5.8zm-2.1-15.4-2.4 6.6c-.6 1.7-1.4 2.5-2.8 2.5h-.7L184 19h.4c1.3 0 1.9.6 1.2 2.6zm-31.4-10.4h-11L133.3 25l5.4-13.8h-10.9L111 56.7h11l5.4-16.1-.3 16.1h10.7l-.5-22.9 16.9-22.6zm-48.8 25.1L101 48.2c-.5 1.3-.8 2-1.9 2-1 0-.9-.8-.5-1.8l10.3-28.1c.5-1.3.8-1.8 1.9-1.8.8 0 .9.6.5 1.9l-3.8 10.3h10.3l6.8-18.6s-.9-.4-2.6-.7c-1.7-.4-4.4-.7-8-.7-10.5 0-12.7 2.3-15.7 10.4l-9.6 26.2c-2.1 5.8-.4 10.1 8.5 10 9.6 0 12-3 14.2-8.8l4.5-12.2h-10.5zm-18-25.1L70.6 56.7H82l16.7-45.5H87.4zm-11.6 0-7.5 21.4 2-21.4H58.6L41.8 56.7H50l7.7-21.3-2 21.3h11.6L84 11.2h-8.2zM40.9 30.6c-2.9-2.8-3.6-4-2.5-7.1l1.2-3.2c.5-1.3.9-1.6 1.8-1.7.7 0 1.1.4.6 1.7l-2.2 6.1h10.4L55.4 12s-1-.4-2.8-.8c-1.8-.4-4.5-.8-8-.8-10.6 0-13.1 2.8-16.4 12.1-2.7 7.5-1 10.1 2.4 13.5 2.4 2.4 4.3 3.8 2.8 7.6l-1.9 4.8c-.4 1.1-.9 1.7-1.6 1.7-1.1 0-1.2-.7-.7-1.9l2.9-7.6H21.8l-5.6 15.3s1.5.4 3.5.7c2.1.4 4.9.7 7.7.7 10.7 0 12.8-3 15.9-11.6 2.8-7.8 1.9-10.9-2.4-15.1zm115.9 6.9h6.2l2.9-7.7h-6.3l4-11h8l2.9-7.7h-19l-16.8 45.5h19l2.7-7.5h-8l4.4-11.6z" style="fill:#253d8c"/><path d="m191.7 41.4-5.1 13.9.7.1 5.2-14.1h-.8m19.7-23.5h-.4c1.3.2 1.6 1.3 1.1 2.6l-2 5.3h.7l2-5.3c.6-1.3.3-2.6-1.4-2.6zm-8.5 19.5c-4.9-5-6.8-6.5-4-14.4 3.2-8.9 5.4-11.5 15.3-11.6h-.3c-10.2 0-12.5 2.5-15.7 11.6-2.8 7.9-.9 9.4 4 14.4 2 2 2.3 3.8 1.2 6.7l-1.7 4.4c-.6 1.5-1.1 2.4-2.2 2.6h.4c1.4 0 2-1 2.6-2.6l1.7-4.4c1-2.9.7-4.7-1.3-6.7zm-25.7-25.4L161 55.8h.7l16.2-43.9h-.7zm.6 25.1h-.5c2.3.1 2.3 2.3 1.4 5l-4.8 13.9h.7l4.8-13.9c.9-2.8.9-5.1-1.6-5zm7.3-18.8h-.7c1.8 0 2.9 1.1 2 3.6l-2.4 6.6c-.7 1.9-1.8 3-3.5 3h.7c1.8 0 2.9-1.1 3.5-3l2.4-6.6c.9-2.5-.2-3.6-2-3.6zm-56.8 20.2-.3 17.5h.7l.2-19.7-.6 2.2zm15.3-26.5-11.4 15.8-.8 2.1 13-17.9h-.8zm-31.3 44h.7L129.2 12h-.7l-16.2 43.9zm-.9-38.1h-.4c1.3.2 1.5 1.3 1 2.6l-3.5 9.6h.7l3.5-9.5c.5-1.5.3-2.7-1.3-2.7zm-9.7 30.7c-.5 1.2-.9 2.3-2.3 2.4h.3c1.7 0 2.2-1.1 2.7-2.5l4.2-11.4h-.7l-4.2 11.5zm-2.8-27.2-9.6 26.2c-2 5.3-.7 9 7.7 9h.4c-8.1-.1-9.3-3.7-7.4-9l9.6-26.2c2.8-7.8 4.7-9.8 14.6-9.9h-.3c-10.2 0-12.2 2.1-15 9.9zM71.8 55.9h.7L88.7 12H88L71.8 55.9zm-15.2 0h.7l2.3-25.7-1 2.6-2 23.1zm-13.6 0h.7L59.9 12h-.7L43 55.9zm33.3-44-8.4 23.5-.3 2.7L77 11.9h-.7zM22.4 41.4l-5.2 13.9.7.2 5.2-14.1h-.7zm19.8-23.6h-.4c1.3.2 1.5 1.3 1.1 2.6l-2 5.3h.7l2-5.3c.5-1.3.2-2.6-1.4-2.6zm-13.3 5.1c-2.8 7.9-.9 9.4 4 14.4 2 2 2.3 3.8 1.2 6.7l-1.7 4.4c-.6 1.5-1.1 2.4-2.2 2.6h.4c1.4 0 2-1 2.6-2.6l1.7-4.4c1.1-2.9.8-4.7-1.2-6.7-4.9-5-6.8-6.5-4-14.4C32.9 14 35.1 11.4 45 11.3h-.3c-10.3 0-12.6 2.6-15.8 11.6zm111 33h.7L156.8 12h-.7l-16.2 43.9z" style="fill-rule:evenodd;clip-rule:evenodd;fill:#fff"/><path d="M219.5 61.9c-1.7 0-3.1 1.3-3.1 3.1s1.3 3.1 3.1 3.1c1.7 0 3.1-1.4 3.1-3.1 0-1.8-1.4-3.1-3.1-3.1m0 5.5c-1.4 0-2.5-1-2.5-2.5 0-1.4 1.1-2.5 2.5-2.5s2.5 1.1 2.5 2.5-1.1 2.5-2.5 2.5z" style="fill-rule:evenodd;clip-rule:evenodd;fill:#e20613"/><path class="st0" d="M218.2 63.3h1.4c.4 0 .7.1.9.3.2.2.3.4.3.7 0 .5-.3.8-.7 1l.8 1.2h-.6l-.8-1.1h-.7v1.1h-.5v-3.2m1.2 1.6c.4 0 .6-.2.6-.5s-.2-.5-.6-.5h-.8V65h.8z"/></svg>