<?xml version="1.0" encoding="utf-8"?>
<!-- Generator: Adobe Illustrator 25.2.3, SVG Export Plug-In . SVG Version: 6.00 Build 0)  -->
<svg version="1.1" id="Layer_1" xmlns="http://www.w3.org/2000/svg" xmlns:xlink="http://www.w3.org/1999/xlink" x="0px" y="0px"
	 viewBox="0 0 1016.5 68.6" style="enable-background:new 0 0 1016.5 68.6;" xml:space="preserve">
<style type="text/css">
	.st0{fill:#060707;}
</style>
<g>
	<path class="st0" d="M45.5,17.8c0-2.2-0.1-4.4-0.2-6.5c-0.2-2.1-0.7-3.8-1.8-5.1c-1.4-1.6-3.6-3.1-6.6-4.3C34,0.6,30.2,0,25.3,0
		c-3.6,0-7,0.7-10.1,2.1c-3.1,1.4-5.8,3.4-8,5.8c-2.3,2.5-4,5.4-5.3,8.7C0.6,20,0,23.7,0,27.5c0,3.7,0.6,7.1,1.7,10.2
		c1.1,3.2,2.8,5.9,4.9,8.3c2.2,2.3,4.8,4.2,8,5.5c3.1,1.3,6.7,2,10.8,2c5.4,0,9.8-1,13.3-3c3.5-2,6.4-5.1,8.8-9.3l-2.7-2.1
		c-1.8,3.6-4.3,6.3-7.3,8.1c-3,1.9-6.3,2.8-9.8,2.8c-3.1,0-5.7-0.6-7.8-1.9c-2.1-1.2-3.9-2.9-5.2-5c-1.4-2.1-2.3-4.5-3-7.2
		c-0.6-2.7-0.9-5.5-0.9-8.4c0-4.6,0.4-8.5,1.3-11.6c0.9-3.1,2.1-5.6,3.6-7.4C17.2,6.7,19,5.4,21,4.6c2-0.8,4.2-1.1,6.6-1.1
		c4.2,0,7.7,1.2,10.3,3.7c2.6,2.5,4.4,6,5.3,10.7H45.5z"/>
	<path class="st0" d="M96.8,52h9.2l13.8-26.4V52h10V16.1h-9.2l-13.8,26.4V26c0-1.9-0.1-3.5-0.3-4.7c-0.2-1.3-0.6-2.3-1.1-3.1
		c-0.5-0.8-1.3-1.3-2.2-1.6c-0.9-0.3-2-0.5-3.3-0.5h-9.2v2.3h0.8c2.3,0,3.8,0.7,4.4,2.1c0.6,1.4,1,3.2,1,5.5V52z M107.2,6.8
		c-1.4-0.8-2.5-1.7-3.3-2.6l-2.2,1.6c1,2.1,2.4,3.9,4.3,5.2c1.9,1.3,4.1,2,6.6,2c2.5,0,4.7-0.7,6.6-2c1.9-1.3,3.3-3.1,4.3-5.2
		l-2.2-1.6c-0.8,1-1.9,1.8-3.3,2.6c-1.4,0.8-3.2,1.2-5.4,1.2S108.7,7.6,107.2,6.8z"/>
	<path class="st0" d="M148.3,3.6c-0.9-1.2-2.4-1.8-4.3-1.8c-1.2,0-2.2,0.4-3,1.1c-0.8,0.8-1.2,1.8-1.2,3.1c0,1.5,0.5,2.9,1.4,4.1
		c0.9,1.2,2.4,1.8,4.3,1.8c1.2,0,2.2-0.4,3-1.1c0.8-0.8,1.2-1.8,1.2-3.1C149.7,6.1,149.2,4.8,148.3,3.6z M140.5,52h10V26
		c0-1.9-0.1-3.5-0.3-4.7c-0.2-1.3-0.6-2.3-1.1-3.1c-0.5-0.8-1.3-1.3-2.2-1.6c-0.9-0.3-2-0.5-3.3-0.5h-9.2v2.3h0.8
		c2.3,0,3.8,0.7,4.4,2.1c0.6,1.4,1,3.2,1,5.5V52z"/>
	<path class="st0" d="M178.4,46.6c1.7,2.3,3.5,3.9,5.4,4.8c1.9,0.9,3.9,1.3,6.1,1.3c1,0,2-0.1,3.1-0.2c1.1-0.2,1.8-0.3,2.2-0.5v-1.8
		c-1.1-0.3-2.2-0.8-3.4-1.8c-1.2-0.9-2.4-2.3-3.8-4.1l-10.2-13.5l7.5-9c1.1-1.3,2.3-2.3,3.5-2.9c1.2-0.6,2.6-0.9,4.1-0.9v-2h-1.5
		c-1.3,0-2.5,0.1-3.6,0.4c-1.1,0.3-2,0.6-2.8,1.1c-0.8,0.5-1.6,1.1-2.4,1.9c-0.7,0.7-1.5,1.6-2.3,2.5L171,33.3V26
		c0-1.9-0.1-3.5-0.3-4.7c-0.2-1.3-0.6-2.3-1.1-3.1c-0.5-0.8-1.3-1.3-2.2-1.6c-0.9-0.3-2-0.5-3.3-0.5h-9.2v2.3h0.8
		c2.3,0,3.8,0.7,4.4,2.1c0.6,1.4,1,3.2,1,5.5v26h10V37L178.4,46.6z"/>
	<path class="st0" d="M208.8,19.5V52h10V19.5h11.6v-3.4h-27.7c-1.2,0-2.1,0.2-2.9,0.5c-0.7,0.4-1.3,0.8-1.7,1.4
		c-0.4,0.6-0.7,1.2-0.9,1.9c-0.2,0.7-0.3,1.5-0.3,2.3v5.4h2.3c0-2.9,0.6-5,1.9-6.2c1.3-1.2,3.1-1.8,5.4-1.8H208.8z"/>
	<path class="st0" d="M248,3.6c-0.9-1.2-2.4-1.8-4.3-1.8c-1.2,0-2.2,0.4-3,1.1c-0.8,0.8-1.2,1.8-1.2,3.1c0,1.5,0.5,2.9,1.4,4.1
		c0.9,1.2,2.4,1.8,4.3,1.8c1.2,0,2.2-0.4,3-1.1c0.8-0.8,1.2-1.8,1.2-3.1C249.4,6.1,248.9,4.8,248,3.6z M240.2,52h10V26
		c0-1.9-0.1-3.5-0.3-4.7c-0.2-1.3-0.6-2.3-1.1-3.1c-0.5-0.8-1.3-1.3-2.2-1.6c-0.9-0.3-2-0.5-3.3-0.5h-9.2v2.3h0.8
		c2.3,0,3.8,0.7,4.4,2.1c0.6,1.4,1,3.2,1,5.5V52z"/>
	<path class="st0" d="M287.4,19.5V52h10V19.5H309v-3.4h-27.7c-1.2,0-2.1,0.2-2.9,0.5c-0.7,0.4-1.3,0.8-1.7,1.4
		c-0.4,0.6-0.7,1.2-0.9,1.9c-0.2,0.7-0.3,1.5-0.3,2.3v5.4h2.3c0-2.9,0.6-5,1.9-6.2c1.3-1.2,3.1-1.8,5.4-1.8H287.4z"/>
	<path class="st0" d="M333.8,44.1c-0.4,1-0.9,1.8-1.5,2.5c-0.6,0.6-1.2,1.2-2,1.7c-0.8,0.5-1.8,0.8-3,0.8c-1.5,0-2.8-0.6-3.6-1.7
		c-0.9-1.1-1.3-2.7-1.3-4.9c0-2.7,0.8-4.8,2.4-6.1c1.6-1.3,4.3-2,8-2h1.2V44.1z M321.1,15.9c-2.1,0.4-3.6,1.1-4.6,2.1
		c-0.9,1-1.5,2.2-1.7,3.6c-0.2,1.4-0.3,2.7-0.3,4.1h4.2c0.3-1.4,0.7-2.6,1.2-3.5c0.5-0.9,1.1-1.6,1.8-2.1c0.7-0.5,1.4-0.9,2.2-1
		c0.8-0.2,1.6-0.3,2.5-0.3c2.3,0,4.1,0.9,5.4,2.7c1.3,1.8,1.9,5,1.9,9.6h-1.2c-4.1,0-7.6,0.3-10.2,0.8c-2.7,0.5-4.8,1.3-6.3,2.3
		c-1.6,1-2.7,2.2-3.3,3.6c-0.6,1.4-0.9,3-0.9,4.9c0,3.1,1.1,5.5,3.3,7.5c2.2,1.9,5.5,2.9,9.7,2.9c1.6,0,3-0.2,4.2-0.6
		c1.2-0.4,2.1-0.9,2.8-1.5c0.9-0.6,1.6-1.3,2.2-2.1h0.4l2.7,3.4h6.5V31.3c0-5.4-1.4-9.4-4.1-12.1c-2.7-2.6-6.6-4-11.6-4
		C325.6,15.3,323.2,15.5,321.1,15.9z"/>
	<path class="st0" d="M405.7,44.1c-0.4,1-0.9,1.8-1.5,2.5c-0.6,0.6-1.2,1.2-2,1.7c-0.8,0.5-1.8,0.8-3,0.8c-1.5,0-2.8-0.6-3.6-1.7
		c-0.9-1.1-1.3-2.7-1.3-4.9c0-2.7,0.8-4.8,2.4-6.1c1.6-1.3,4.3-2,8-2h1.2V44.1z M393,15.9c-2.1,0.4-3.6,1.1-4.6,2.1
		c-0.9,1-1.5,2.2-1.7,3.6c-0.2,1.4-0.3,2.7-0.3,4.1h4.2c0.3-1.4,0.7-2.6,1.2-3.5c0.5-0.9,1.1-1.6,1.8-2.1c0.7-0.5,1.4-0.9,2.2-1
		c0.8-0.2,1.6-0.3,2.5-0.3c2.3,0,4.1,0.9,5.4,2.7c1.3,1.8,1.9,5,1.9,9.6h-1.2c-4.1,0-7.6,0.3-10.2,0.8c-2.7,0.5-4.8,1.3-6.3,2.3
		c-1.6,1-2.7,2.2-3.3,3.6c-0.6,1.4-0.9,3-0.9,4.9c0,3.1,1.1,5.5,3.3,7.5c2.2,1.9,5.5,2.9,9.7,2.9c1.6,0,3-0.2,4.2-0.6
		c1.2-0.4,2.1-0.9,2.8-1.5c0.9-0.6,1.6-1.3,2.2-2.1h0.4l2.7,3.4h6.5V31.3c0-5.4-1.4-9.4-4.1-12.1c-2.7-2.6-6.6-4-11.6-4
		C397.5,15.3,395.1,15.5,393,15.9z"/>
	<path class="st0" d="M465.1,15.3H455l-10,23.8l-11.4-23h-9.4v35.9h3.8v-27L441.5,52h2.5l11.1-26.3V39c0,5,1.2,8.7,3.6,11.2
		c2.4,2.5,6.4,3.7,12,3.7V52c-2.1-0.4-3.6-1.6-4.4-3.6c-0.8-2-1.2-5.2-1.2-9.4V15.3z"/>
	<path class="st0" d="M485,48.5c0.8-1.9,1.4-3.9,2-5.9c0.5-2.1,1-4.3,1.3-6.6c0.3-2.3,0.6-4.8,0.7-7.6c0.2-2.7,0.2-5.7,0.2-9h10.8
		v29.1H485z M502.6,52c1.2,0,2.3,0.2,3.3,0.5c1,0.3,1.8,1,2.5,1.9c0.7,0.9,1.3,2.2,1.8,3.7c0.5,1.6,0.8,3.6,1,6.1h3.8v-13
		c0-0.8-0.3-1.4-0.8-1.9c-0.5-0.5-1.2-0.8-1.9-0.8H510V16.1h-34.2v2.3c1.2,0,2.2,0.2,3,0.5c0.8,0.4,1.4,0.8,1.8,1.5
		c0.4,0.6,0.7,1.3,0.8,2.2c0.1,0.8,0.2,1.7,0.2,2.7c0,3.5-0.3,7.3-1,11.4c-0.7,4.1-1.9,8.1-3.6,11.9h-2.8c-0.8,0-1.4,0.3-1.9,0.8
		c-0.5,0.5-0.8,1.1-0.8,1.9v13h3.8c0.2-2.5,0.5-4.5,1-6.1c0.5-1.6,1-2.8,1.8-3.7c0.7-0.9,1.6-1.5,2.5-1.9c1-0.3,2.1-0.5,3.3-0.5
		H502.6z"/>
	<path class="st0" d="M539.8,44.1c-0.4,1-0.9,1.8-1.5,2.5c-0.6,0.6-1.2,1.2-2,1.7c-0.8,0.5-1.8,0.8-3,0.8c-1.5,0-2.8-0.6-3.6-1.7
		c-0.9-1.1-1.3-2.7-1.3-4.9c0-2.7,0.8-4.8,2.4-6.1c1.6-1.3,4.3-2,8-2h1.2V44.1z M527.1,15.9c-2.1,0.4-3.6,1.1-4.6,2.1
		c-0.9,1-1.5,2.2-1.7,3.6c-0.2,1.4-0.3,2.7-0.3,4.1h4.2c0.3-1.4,0.7-2.6,1.2-3.5c0.5-0.9,1.1-1.6,1.8-2.1c0.7-0.5,1.4-0.9,2.2-1
		c0.8-0.2,1.6-0.3,2.5-0.3c2.3,0,4.1,0.9,5.4,2.7c1.3,1.8,1.9,5,1.9,9.6h-1.2c-4.1,0-7.6,0.3-10.2,0.8c-2.7,0.5-4.8,1.3-6.3,2.3
		c-1.6,1-2.6,2.2-3.3,3.6c-0.6,1.4-0.9,3-0.9,4.9c0,3.1,1.1,5.5,3.3,7.5c2.2,1.9,5.5,2.9,9.7,2.9c1.6,0,3-0.2,4.2-0.6
		c1.2-0.4,2.1-0.9,2.8-1.5c0.9-0.6,1.6-1.3,2.2-2.1h0.4l2.7,3.4h6.5V31.3c0-5.4-1.4-9.4-4.1-12.1c-2.7-2.6-6.6-4-11.6-4
		C531.5,15.3,529.2,15.5,527.1,15.9z"/>
	<path class="st0" d="M574.7,15.7c-1.1,0.3-2.1,0.6-2.9,1c-0.8,0.4-1.6,0.8-2.2,1.3c-0.6,0.5-1.2,0.9-1.7,1.3
		c-0.6-1.2-1.3-2.1-2.3-2.5c-1-0.5-2.4-0.7-4.1-0.7h-7.6v2.3h0.8c1.1,0,2,0.2,2.8,0.5c0.7,0.4,1.3,0.9,1.6,1.6
		c0.4,0.7,0.6,1.5,0.7,2.4c0.1,0.9,0.2,2,0.2,3.1v40.5h10V50.5c0.6,0.5,1.3,0.8,2.2,1.1c0.7,0.3,1.6,0.6,2.5,0.8
		c1,0.2,2.1,0.3,3.4,0.3c2.8,0,5.2-0.5,7.3-1.5c2.1-1,3.8-2.3,5.2-4s2.4-3.7,3.1-6c0.7-2.3,1-4.7,1-7.3c0-2.6-0.3-5-1-7.3
		c-0.7-2.3-1.7-4.3-3-6c-1.4-1.7-3-3-5.1-4c-2-1-4.4-1.5-7-1.5C577,15.3,575.8,15.4,574.7,15.7z M580.2,19.9
		c0.9,0.8,1.7,1.8,2.3,3.2c0.6,1.4,1,3,1.3,4.9c0.3,1.9,0.4,3.9,0.4,6.1c0,2.2-0.1,4.2-0.4,6.1c-0.3,1.9-0.7,3.5-1.3,4.9
		c-0.6,1.4-1.4,2.4-2.4,3.2c-1,0.8-2.2,1.1-3.6,1.1c-1,0-1.9-0.1-2.7-0.3c-0.8-0.2-1.5-0.5-2-0.8c-0.7-0.3-1.3-0.7-1.8-1.1V25.5
		c0-0.6,0-1-0.1-1.5c-0.1-0.4-0.1-0.8-0.2-1.1c-0.1-0.4-0.2-0.7-0.2-1.1c0.7-0.7,1.6-1.3,2.8-2.1c1.2-0.7,2.7-1.1,4.7-1.1
		C578.1,18.7,579.2,19.1,580.2,19.9z"/>
	<path class="st0" d="M609.6,48.5c0.8-1.9,1.4-3.9,2-5.9c0.5-2.1,1-4.3,1.3-6.6c0.3-2.3,0.6-4.8,0.7-7.6c0.2-2.7,0.2-5.7,0.2-9h10.8
		v29.1H609.6z M627.2,52c1.2,0,2.3,0.2,3.3,0.5c1,0.3,1.8,1,2.5,1.9c0.7,0.9,1.3,2.2,1.8,3.7c0.5,1.6,0.8,3.6,1,6.1h3.8v-13
		c0-0.8-0.3-1.4-0.8-1.9c-0.5-0.5-1.2-0.8-1.9-0.8h-2.3V16.1h-34.2v2.3c1.2,0,2.2,0.2,3,0.5c0.8,0.4,1.4,0.8,1.8,1.5
		c0.4,0.6,0.7,1.3,0.8,2.2c0.1,0.8,0.2,1.7,0.2,2.7c0,3.5-0.3,7.3-1,11.4c-0.7,4.1-1.9,8.1-3.6,11.9h-2.8c-0.8,0-1.4,0.3-1.9,0.8
		c-0.5,0.5-0.8,1.1-0.8,1.9v13h3.8c0.2-2.5,0.5-4.5,1-6.1c0.5-1.6,1-2.8,1.8-3.7c0.7-0.9,1.6-1.5,2.5-1.9c1-0.3,2.1-0.5,3.3-0.5
		H627.2z"/>
	<path class="st0" d="M656.3,34.2c0.6-0.2,1.2-0.3,1.8-0.4c0.7-0.1,1.2-0.1,1.6-0.1c0.9,0,1.7,0.1,2.5,0.4c0.8,0.3,1.6,0.7,2.2,1.3
		c0.7,0.6,1.2,1.4,1.6,2.4c0.4,1,0.6,2.2,0.6,3.6c0,1.5-0.2,2.7-0.6,3.7c-0.4,1-0.9,1.7-1.6,2.3c-0.7,0.6-1.4,1-2.2,1.3
		c-0.8,0.3-1.7,0.4-2.5,0.4c-0.4,0-0.9,0-1.6-0.1c-0.7-0.1-1.3-0.2-1.8-0.4V34.2z M646.3,52h15c4.8,0,8.6-0.9,11.5-2.8
		c2.8-1.8,4.3-4.5,4.3-8c0-3.5-1.4-6.1-4.3-8c-2.8-1.8-6.7-2.8-11.5-2.8h-5V26c0-1.9-0.1-3.5-0.3-4.7c-0.2-1.3-0.6-2.3-1.1-3.1
		c-0.5-0.8-1.3-1.3-2.2-1.6c-0.9-0.3-2-0.5-3.3-0.5h-9.2v2.3h0.8c2.3,0,3.8,0.7,4.4,2.1c0.6,1.4,1,3.2,1,5.5V52z M690.9,16.1h-10v26
		c0,1.9,0.1,3.5,0.3,4.8c0.2,1.3,0.6,2.3,1.1,3.1c0.5,0.8,1.3,1.3,2.2,1.6c0.9,0.3,2,0.5,3.3,0.5h9.2v-2.3h-0.8
		c-2.3,0-3.8-0.7-4.4-2.1c-0.6-1.4-1-3.2-1-5.5V16.1z"/>
	<path class="st0" d="M774.1,19.5V52h10V19.5h11.6v-3.4H768c-1.2,0-2.1,0.2-2.9,0.5c-0.7,0.4-1.3,0.8-1.7,1.4
		c-0.4,0.6-0.7,1.2-0.9,1.9c-0.2,0.7-0.3,1.5-0.3,2.3v5.4h2.3c0-2.9,0.6-5,1.9-6.2c1.3-1.2,3.1-1.8,5.4-1.8H774.1z"/>
	<path class="st0" d="M820.5,44.1c-0.4,1-0.9,1.8-1.5,2.5c-0.6,0.6-1.2,1.2-2,1.7c-0.8,0.5-1.8,0.8-3,0.8c-1.5,0-2.8-0.6-3.6-1.7
		c-0.9-1.1-1.3-2.7-1.3-4.9c0-2.7,0.8-4.8,2.4-6.1c1.6-1.3,4.3-2,8-2h1.2V44.1z M807.8,15.9c-2.1,0.4-3.6,1.1-4.6,2.1
		c-0.9,1-1.5,2.2-1.7,3.6c-0.2,1.4-0.3,2.7-0.3,4.1h4.2c0.3-1.4,0.7-2.6,1.2-3.5c0.5-0.9,1.1-1.6,1.8-2.1c0.7-0.5,1.4-0.9,2.2-1
		c0.8-0.2,1.6-0.3,2.5-0.3c2.3,0,4.1,0.9,5.4,2.7c1.3,1.8,1.9,5,1.9,9.6h-1.2c-4.1,0-7.6,0.3-10.2,0.8c-2.7,0.5-4.8,1.3-6.3,2.3
		c-1.6,1-2.7,2.2-3.3,3.6c-0.6,1.4-0.9,3-0.9,4.9c0,3.1,1.1,5.5,3.3,7.5c2.2,1.9,5.5,2.9,9.7,2.9c1.6,0,3-0.2,4.2-0.6
		c1.2-0.4,2.1-0.9,2.8-1.5c0.9-0.6,1.6-1.3,2.2-2.1h0.4L824,52h6.5V31.3c0-5.4-1.4-9.4-4.1-12.1c-2.7-2.6-6.6-4-11.6-4
		C812.2,15.3,809.9,15.5,807.8,15.9z"/>
	<path class="st0" d="M855.4,15.7c-1.1,0.3-2.1,0.6-2.9,1c-0.8,0.4-1.6,0.8-2.2,1.3c-0.6,0.5-1.2,0.9-1.7,1.3
		c-0.6-1.2-1.3-2.1-2.3-2.5c-1-0.5-2.4-0.7-4.1-0.7h-7.6v2.3h0.8c1.1,0,2,0.2,2.8,0.5c0.7,0.4,1.3,0.9,1.6,1.6
		c0.4,0.7,0.6,1.5,0.7,2.4c0.1,0.9,0.2,2,0.2,3.1v40.5h10V50.5c0.6,0.5,1.3,0.8,2.2,1.1c0.7,0.3,1.6,0.6,2.5,0.8
		c1,0.2,2.1,0.3,3.4,0.3c2.8,0,5.2-0.5,7.3-1.5c2.1-1,3.8-2.3,5.2-4c1.4-1.7,2.4-3.7,3.1-6c0.7-2.3,1-4.7,1-7.3c0-2.6-0.3-5-1-7.3
		c-0.7-2.3-1.7-4.3-3-6c-1.4-1.7-3-3-5.1-4c-2-1-4.4-1.5-7-1.5C857.7,15.3,856.5,15.4,855.4,15.7z M860.9,19.9
		c0.9,0.8,1.7,1.8,2.3,3.2c0.6,1.4,1,3,1.3,4.9c0.3,1.9,0.4,3.9,0.4,6.1c0,2.2-0.1,4.2-0.4,6.1c-0.3,1.9-0.7,3.5-1.3,4.9
		c-0.6,1.4-1.4,2.4-2.4,3.2c-1,0.8-2.2,1.1-3.6,1.1c-1,0-1.9-0.1-2.7-0.3c-0.8-0.2-1.5-0.5-2-0.8c-0.7-0.3-1.3-0.7-1.8-1.1V25.5
		c0-0.6,0-1-0.1-1.5c-0.1-0.4-0.1-0.8-0.2-1.1c-0.1-0.4-0.2-0.7-0.2-1.1c0.7-0.7,1.6-1.3,2.8-2.1c1.2-0.7,2.7-1.1,4.7-1.1
		C858.9,18.7,860,19.1,860.9,19.9z"/>
	<path class="st0" d="M884,52h9.2L907,25.6V52h10V16.1h-9.2l-13.8,26.4V26c0-1.9-0.1-3.5-0.3-4.7c-0.2-1.3-0.6-2.3-1.1-3.1
		c-0.5-0.8-1.3-1.3-2.2-1.6c-0.9-0.3-2-0.5-3.3-0.5h-9.2v2.3h0.8c2.3,0,3.8,0.7,4.4,2.1c0.6,1.4,1,3.2,1,5.5V52z"/>
	<path class="st0" d="M923.4,52h5.1l10.1-12.3l3.8,6.2c1.1,1.9,2.4,3.4,3.9,4.5c1.5,1.1,3.4,1.6,6,1.6h7.3v-1.5
		c-1.2-0.2-2.4-0.8-3.6-1.8c-1.3-1-2.4-2.4-3.5-4.3L944.9,32l13-15.9h-5.1l-10.1,12.3l-3.7-6.2c-1.1-1.9-2.4-3.4-3.9-4.5
		c-1.5-1.1-3.4-1.6-6-1.6h-7.3v1.5c1.2,0.2,2.4,0.8,3.6,1.8c1.3,1,2.4,2.4,3.5,4.3l7.4,12.3L923.4,52z"/>
	<path class="st0" d="M975.8,34.2c0.6-0.2,1.2-0.3,1.8-0.4c0.7-0.1,1.2-0.1,1.6-0.1c0.9,0,1.7,0.1,2.5,0.4c0.8,0.3,1.6,0.7,2.2,1.3
		c0.7,0.6,1.2,1.4,1.6,2.4c0.4,1,0.6,2.2,0.6,3.6c0,1.5-0.2,2.7-0.6,3.7c-0.4,1-0.9,1.7-1.6,2.3c-0.7,0.6-1.4,1-2.2,1.3
		c-0.8,0.3-1.7,0.4-2.5,0.4c-0.4,0-0.9,0-1.6-0.1c-0.7-0.1-1.3-0.2-1.8-0.4V34.2z M965.8,52h15c4.8,0,8.6-0.9,11.5-2.8
		c2.8-1.8,4.3-4.5,4.3-8c0-3.5-1.4-6.1-4.3-8c-2.8-1.8-6.7-2.8-11.5-2.8h-5V26c0-1.9-0.1-3.5-0.3-4.7c-0.2-1.3-0.6-2.3-1.1-3.1
		c-0.5-0.8-1.3-1.3-2.2-1.6c-0.9-0.3-2-0.5-3.3-0.5h-9.2v2.3h0.8c2.3,0,3.8,0.7,4.4,2.1c0.6,1.4,1,3.2,1,5.5V52z M1010.3,16.1h-10
		v26c0,1.9,0.1,3.5,0.3,4.8c0.2,1.3,0.6,2.3,1.1,3.1c0.5,0.8,1.3,1.3,2.2,1.6c0.9,0.3,2,0.5,3.3,0.5h9.2v-2.3h-0.8
		c-2.3,0-3.8-0.7-4.4-2.1c-0.6-1.4-1-3.2-1-5.5V16.1z"/>
	<path class="st0" d="M379.7,19.9c-0.2-0.7-0.5-1.4-0.9-1.9c-0.4-0.6-1-1-1.8-1.4c-0.8-0.4-1.7-0.5-2.8-0.5h-26.5v2.3h0.4
		c2.3,0,3.8,0.7,4.4,2.1c0.6,1.4,1,3.2,1,5.5v26h10V33.9h12v-4.3h-12V19.5h6.9c2.3,0,4.1,0.6,5.4,1.8c1.3,1.2,1.9,3.3,1.9,6.2h2.3
		v-5.4C380,21.4,379.9,20.7,379.7,19.9z"/>
	<path class="st0" d="M87.9,16h-4.7l-8.9,25.4l-8.8-19.3c-0.9-1.9-2.2-3.4-3.9-4.5c-1.7-1.1-3.8-1.6-6.1-1.6h-6.8l0,2.3
		c3.1,0.4,5.4,1.6,7.1,5.4l13.8,30.1c0,0,0.1,2.5-0.1,14.8c0,0,1.5,0,2.6,0c0.6,0,2.4,0,2.4,0s0.2-11.5,0-14.9L87.9,16z"/>
	<path class="st0" d="M741.2,49.3c-0.5-0.5-1.2-0.8-1.9-0.8H737c0,0,0,0,0,0c-0.3-0.3-0.5-0.6-0.7-1c-0.6-1.4-1-3.2-1-5.5v-26h-10
		v16.1H713V26c0-1.9-0.1-3.5-0.3-4.7c-0.2-1.3-0.6-2.3-1.1-3.1c-0.5-0.8-1.3-1.3-2.2-1.6c-0.9-0.3-2-0.5-3.3-0.5h-9.2v2.3h0.8
		c2.3,0,3.8,0.7,4.4,2.1c0.6,1.4,1,3.2,1,5.5v26h10V35.6h12.3v6.5c0,1.9,0.1,3.5,0.3,4.8c0.2,1.3,0.6,2.3,1.1,3.1
		c0.5,0.8,1.3,1.3,2.2,1.6c0.9,0.3,2,0.5,3.3,0.5h0.7c0,0,0,0,0.1,0.1c1,0.3,1.7,1.4,2.4,2.3c0.7,0.9,1.3,2.2,1.8,3.7
		c0.5,1.6,0.8,3.6,1,6.1h3.8v-13C742,50.5,741.7,49.8,741.2,49.3z"/>
</g>
</svg>
