<?xml version="1.0" encoding="utf-8"?>
<!-- Generator: Adobe Illustrator 25.2.3, SVG Export Plug-In . SVG Version: 6.00 Build 0)  -->
<svg version="1.1" id="Layer_1" xmlns="http://www.w3.org/2000/svg" xmlns:xlink="http://www.w3.org/1999/xlink" x="0px" y="0px"
	 viewBox="0 0 204.2 36.2" style="enable-background:new 0 0 204.2 36.2;" xml:space="preserve">
<style type="text/css">
	.st0{fill:#060606;}
</style>
<g>
	<path class="st0" d="M4.1,7.8c0-1.8-0.2-3.1-0.7-3.9C2.9,3,2,2.6,0.5,2.6H0V1h6.2C7.4,1,8.4,1.2,9,1.7c0.7,0.4,1.1,1.1,1.4,2
		c0.3,0.9,0.4,2.3,0.4,4.1v8.5h14V1h6.7v27.4c0,1.8,0.2,3.1,0.7,3.9c0.5,0.8,1.4,1.3,2.9,1.3h0.5v1.6h-6.2c-1.2,0-2.2-0.2-2.8-0.6
		c-0.7-0.4-1.1-1.1-1.4-2c-0.3-0.9-0.4-2.3-0.4-4.1v-9.8h-14v16.5H4.1V7.8z"/>
	<path class="st0" d="M63.5,34c-1.8-0.9-3.2-2.7-4.3-5.4L58,25.7H44.2L40,35.2h-2.7L52.6,1h2.3l11.6,27.6c1.3,3.2,3.1,4.9,5.4,5.2
		v1.3c-0.6,0.2-1.4,0.3-2.5,0.3C67.2,35.4,65.2,34.9,63.5,34z M45.3,23.4H57L51.3,9.9L45.3,23.4z"/>
	<path class="st0" d="M75.2,33.8c1.8,0,3.4-0.2,4.8-0.7c1.3-0.5,2.3-1.4,2.9-2.8l0.4-0.8L72.7,7.8c-0.8-1.7-1.7-3-2.8-4
		c-1.1-1-2.3-1.5-3.6-1.7V1h5.2c1.9,0,3.6,0.5,5,1.6c1.5,1,2.6,2.4,3.4,4.1L87,21.3L96.2,1h3.4L86.3,30.2c-0.7,1.7-1.8,3.1-3.3,4
		c-1.4,0.9-3.2,1.4-5.2,1.4h-2.6V33.8z"/>
	<path class="st0" d="M106.3,7.8c0-1.8-0.2-3.1-0.7-3.9c-0.5-0.8-1.4-1.3-2.9-1.3h-0.5V1h14.2c3.5,0,6.8,0.7,9.6,2.1
		s4.3,4.2,4.3,8.3c0,2.7-0.7,4.8-2.2,6.3c-1.5,1.5-3.2,2.5-5,2.9c-1.9,0.5-3.6,0.7-5.1,0.7H113v13.8h-6.7V7.8z M116.1,19.3
		c2,0,3.7-0.6,5-1.9c1.3-1.2,2-3.3,2-6.3c0-2.9-0.6-5-1.9-6.2c-1.3-1.2-2.9-1.9-4.8-1.9c-1,0-1.8,0.1-2.3,0.2l-1,0.2v15.8H116.1z"/>
	<path class="st0" d="M134.6,7.8c0-1.8-0.2-3.1-0.7-3.9c-0.5-0.8-1.4-1.3-2.9-1.3h-0.5V1h6.2c1.2,0,2.2,0.2,2.8,0.6
		c0.7,0.4,1.1,1.1,1.4,2c0.3,0.9,0.4,2.3,0.4,4.1V15h4.1c4.4,0,8,0.8,10.9,2.3c2.9,1.5,4.3,4.1,4.3,7.8s-1.4,6.3-4.3,7.8
		c-2.9,1.5-6.5,2.3-10.9,2.3h-10.9V7.8z M151.3,31.1c1.4-1.3,2.1-3.3,2.1-6s-0.7-4.7-2.1-6c-1.4-1.3-3.6-2-6.7-2
		c-0.9,0-1.7,0.1-2.4,0.3l-1,0.3v15c0.3,0.1,0.6,0.2,1,0.3c0.8,0.2,1.6,0.3,2.4,0.3C147.7,33.1,149.9,32.4,151.3,31.1z M166,34.6
		c-0.7-0.4-1.1-1.1-1.4-2c-0.3-0.9-0.4-2.3-0.4-4.1V1h6.7v27.4c0,1.8,0.2,3.1,0.7,3.9c0.5,0.8,1.4,1.3,2.9,1.3h0.5v1.6h-6.2
		C167.6,35.2,166.7,35,166,34.6z"/>
	<path class="st0" d="M182.5,34.5c-2.2-1.1-4-2.9-5.6-5.3l1.6-1.3c1.4,1.8,2.9,3.3,4.6,4.3c1.7,1.1,3.7,1.6,6.1,1.6
		c2.3,0,4.2-0.6,5.7-1.9c1.5-1.3,2.2-3,2.2-5.3c0-2.4-0.8-4.4-2.4-5.7c-1.6-1.4-3.7-2-6.4-2h-4.4v-2.3h4.4c1.3,0,2.5-0.3,3.7-0.8
		c1.2-0.6,2.2-1.4,2.9-2.5c0.8-1.1,1.1-2.4,1.1-4c0-1.6-0.3-2.9-1-3.9c-0.7-1.1-1.5-1.8-2.6-2.3c-1-0.5-2-0.7-3.1-0.7
		c-2.3,0-4.3,0.8-5.9,2.3c-1.6,1.5-2.8,3.6-3.4,6.3h-1.6c0-2,0.1-3.5,0.2-4.5c0.1-1.1,0.5-2,1.1-2.7c0.9-1.1,2.2-1.9,4.2-2.6
		c1.9-0.7,3.8-1,5.7-1c3.9,0,7.1,0.6,9.6,1.9c2.5,1.3,3.8,3.7,3.8,7.1c0,1.8-0.7,3.4-2.1,5c-1.4,1.6-3.4,2.7-5.8,3.3
		c3.1,0.4,5.5,1.4,7,3.2c1.5,1.7,2.3,3.7,2.3,5.9c0,2.3-0.7,4.2-2.1,5.7c-1.4,1.5-3.1,2.5-5.2,3.2c-2.1,0.6-4.3,1-6.6,1
		C187.2,36.2,184.6,35.6,182.5,34.5z"/>
</g>
</svg>
