<?xml version="1.0" encoding="utf-8"?>
<!-- Generator: Adobe Illustrator 25.2.3, SVG Export Plug-In . SVG Version: 6.00 Build 0)  -->
<svg version="1.1" id="Layer_1" xmlns="http://www.w3.org/2000/svg" xmlns:xlink="http://www.w3.org/1999/xlink" x="0px" y="0px"
	 viewBox="0 0 405.2 27.6" style="enable-background:new 0 0 405.2 27.6;" xml:space="preserve">
<style type="text/css">
	.st0{fill-rule:evenodd;clip-rule:evenodd;fill:#060707;}
</style>
<path id="История_любимых_угощений_copy_1_" class="st0" d="M2.5,21.4h3.7l9-16.3v16.3h4V1.1h-3.7l-9,16.3
	V5.1c0-0.6,0-1.3-0.1-1.9C6.3,2.7,6.2,2.3,5.9,1.9C5.7,1.6,5.4,1.4,5.1,1.3C4.6,1.1,4.2,1.1,3.7,1.1H0V2h0.3c0.9,0,1.5,0.3,1.8,0.8
	c0.3,0.7,0.4,1.5,0.4,2.2L2.5,21.4L2.5,21.4z M33.3,9c0.8,0.8,1.2,1.9,1.2,3h0.9c0-1.2,0-2.1-0.1-2.7c0-0.6-0.3-1.1-0.7-1.6
	c-0.5-0.4-1.1-0.7-1.8-0.8c-1-0.2-2-0.3-3-0.2c-1.1,0-2.2,0.2-3.2,0.6c-0.9,0.4-1.7,0.9-2.3,1.6c-0.6,0.7-1.1,1.5-1.4,2.4
	c-0.6,1.9-0.6,3.9,0,5.8c0.3,0.9,0.8,1.7,1.4,2.4c0.6,0.7,1.4,1.3,2.3,1.6c1,0.4,2.1,0.6,3.2,0.6c0.8,0,1.6-0.1,2.3-0.3
	c0.6-0.2,1.2-0.4,1.7-0.8c0.4-0.3,0.8-0.6,1.2-1c0.3-0.3,0.6-0.7,0.8-1.1l-1-0.7c-0.5,0.7-1.1,1.3-1.8,1.8c-0.8,0.5-1.7,0.8-2.6,0.7
	c-2.6,0-3.9-2.1-3.9-6.2c0-2.1,0.3-3.6,1-4.7C28.2,8.6,29.2,8,30.3,8C31.4,8,32.5,8.3,33.3,9L33.3,9z M42.3,8.3v13.1h4V8.3H51V6.9
	H39.8c-0.4,0-0.8,0.1-1.2,0.2c-0.3,0.1-0.5,0.3-0.7,0.6c-0.2,0.2-0.3,0.5-0.4,0.8c-0.1,0.3-0.1,0.6-0.1,0.9v2.2h0.9
	c-0.1-0.9,0.2-1.8,0.8-2.5c0.6-0.5,1.4-0.8,2.2-0.7L42.3,8.3L42.3,8.3z M62.4,16.6c-0.1,0.7-0.3,1.3-0.6,2c-0.2,0.5-0.6,1-1,1.3
	c-0.8,0.6-2,0.6-2.8,0c-0.4-0.3-0.8-0.8-1-1.3c-0.3-0.6-0.5-1.3-0.6-2c-0.3-1.6-0.3-3.3,0-4.9c0.1-0.7,0.3-1.3,0.6-2
	c0.2-0.5,0.6-1,1-1.3c0.8-0.6,2-0.6,2.8,0c0.4,0.3,0.8,0.8,1,1.3c0.3,0.6,0.5,1.3,0.6,2C62.7,13.4,62.7,15,62.4,16.6L62.4,16.6z
	 M52.5,17.1c0.3,0.9,0.8,1.7,1.5,2.4c0.7,0.7,1.5,1.2,2.3,1.6c2,0.8,4.2,0.8,6.2,0c0.9-0.4,1.7-0.9,2.3-1.6c0.6-0.7,1.1-1.5,1.5-2.4
	c0.7-1.9,0.7-4,0-5.9c-0.3-0.9-0.8-1.7-1.5-2.4c-0.7-0.7-1.5-1.2-2.3-1.6c-2-0.8-4.2-0.8-6.2,0c-0.9,0.4-1.7,0.9-2.3,1.6
	c-0.7,0.7-1.2,1.5-1.5,2.4C51.8,13.1,51.8,15.2,52.5,17.1L52.5,17.1z M76.4,6.8C76,6.9,75.6,7,75.2,7.2c-0.3,0.1-0.6,0.3-0.9,0.5
	c-0.2,0.2-0.5,0.3-0.7,0.5c-0.2-0.4-0.5-0.8-0.9-1C72.2,7,71.6,6.9,71,6.9H68v0.9h0.3c0.4,0,0.8,0.1,1.1,0.2
	c0.3,0.1,0.5,0.4,0.6,0.6c0.2,0.3,0.3,0.6,0.3,1c0.1,0.4,0.1,0.8,0.1,1.2v16.3h4v-6.5c0.3,0.2,0.6,0.4,0.9,0.5
	c0.3,0.1,0.7,0.2,1,0.3c0.4,0.1,0.9,0.1,1.4,0.1c1,0,2-0.2,2.9-0.6c0.8-0.4,1.5-0.9,2.1-1.6c0.6-0.7,1-1.5,1.2-2.4
	c0.5-1.9,0.5-4,0-5.9c-0.2-0.9-0.7-1.7-1.2-2.4c-0.6-0.7-1.2-1.2-2-1.6C79.3,6.6,77.8,6.5,76.4,6.8z M78.6,8.5
	c0.4,0.4,0.7,0.8,0.9,1.3c0.3,0.6,0.4,1.3,0.5,2c0.2,1.6,0.2,3.3,0,4.9c-0.1,0.7-0.3,1.3-0.5,2c-0.2,0.5-0.5,0.9-1,1.3
	c-0.4,0.3-0.9,0.5-1.5,0.5c-0.4,0-0.7,0-1.1-0.1c-0.3-0.1-0.6-0.2-0.8-0.3c-0.3-0.1-0.5-0.3-0.7-0.5v-8.7c0-0.2,0-0.4,0-0.6
	c0-0.2-0.1-0.3-0.1-0.5c0-0.1-0.1-0.3-0.1-0.4c0.3-0.3,0.7-0.6,1.1-0.8C75.9,8.1,76.6,8,77.2,8C77.7,8,78.2,8.2,78.6,8.5z
	 M87.9,21.4h3.7l5.6-10.6v10.6h4V6.9h-3.7l-5.6,10.6v-6.6c0-0.6,0-1.3-0.1-1.9c-0.1-0.4-0.2-0.9-0.4-1.2c-0.2-0.3-0.5-0.5-0.9-0.7
	C90,7,89.5,6.9,89.1,6.9h-3.7v0.9h0.3c0.9,0,1.5,0.3,1.8,0.8c0.3,0.7,0.4,1.5,0.4,2.2L87.9,21.4L87.9,21.4z M109.5,13.5
	c-0.6-0.6-1-1.5-0.9-2.4c0-0.5,0.1-0.9,0.2-1.4c0.1-0.3,0.4-0.6,0.7-0.9c0.3-0.2,0.6-0.4,0.9-0.5c0.4-0.1,0.7-0.2,1.1-0.2
	c0.3,0,0.7,0,1,0.1c0.1,0.1,0.3,0.1,0.4,0.1V14c-0.1,0-0.3,0-0.4,0.1c-0.3,0.1-0.7,0.1-1,0.1C110.8,14.2,110,13.9,109.5,13.5
	L109.5,13.5z M116.9,10.9c0-0.8,0.1-1.5,0.4-2.2c0.3-0.6,0.9-0.8,1.8-0.8h0.2V6.9h-8c-0.9,0-1.8,0.1-2.7,0.2
	c-0.8,0.1-1.5,0.4-2.2,0.8c-0.6,0.3-1.1,0.8-1.4,1.4c-0.3,0.6-0.5,1.3-0.5,2.1c0,0.9,0.3,1.9,1,2.6c0.7,0.7,1.6,1.2,2.6,1.3
	l-1.9,3.2c-0.3,0.5-0.7,1-1.1,1.5c-0.4,0.4-0.9,0.7-1.5,0.8v0.8c0.3,0.1,0.6,0.2,0.9,0.2c0.4,0.1,0.8,0.1,1.1,0.1
	c0.5,0,1-0.1,1.5-0.2c0.4-0.1,0.8-0.3,1.1-0.5c0.3-0.2,0.6-0.5,0.9-0.9c0.3-0.4,0.5-0.8,0.7-1.2l1.9-3.7h1.4v6h4L116.9,10.9
	L116.9,10.9z M134.4,8.3h4.4v13.1h4V6.9h-13.9v0.9c0.4,0,0.8,0.1,1.2,0.2c0.3,0.1,0.5,0.3,0.7,0.6c0.2,0.3,0.3,0.6,0.3,0.9
	c0.1,0.4,0.1,0.7,0.1,1.1c0,1.6-0.1,3.3-0.3,4.9c-0.1,1-0.4,2-0.8,3c-0.3,0.6-0.7,1.2-1.2,1.6c-0.5,0.3-1,0.5-1.5,0.6v0.9
	c0.3,0.1,0.5,0.1,0.8,0.2c0.3,0.1,0.7,0.1,1.1,0.1c0.7,0,1.5-0.2,2.1-0.6c0.7-0.5,1.3-1.1,1.7-1.9c0.5-1.1,0.9-2.3,1.1-3.5
	c0.3-1.7,0.4-3.5,0.4-5.3L134.4,8.3L134.4,8.3z M162.1,21.2c0.8-0.4,1.6-0.9,2.2-1.6c0.6-0.7,1.1-1.5,1.4-2.4c0.7-1.9,0.7-4,0-5.9
	c-0.3-0.9-0.8-1.7-1.4-2.4c-0.6-0.7-1.4-1.2-2.2-1.6c-1.8-0.8-3.8-0.8-5.6-0.1c-0.8,0.3-1.5,0.8-2.1,1.4c-0.6,0.6-1.1,1.3-1.4,2.1
	c-0.4,0.9-0.6,1.8-0.7,2.7h-1.3v-2.5c0-0.6,0-1.3-0.1-1.9c-0.1-0.4-0.2-0.9-0.4-1.2c-0.2-0.3-0.5-0.5-0.9-0.7
	c-0.4-0.1-0.9-0.2-1.3-0.2h-3.7v0.9h0.3c0.9,0,1.5,0.3,1.8,0.8c0.3,0.7,0.4,1.5,0.4,2.2v10.5h4v-6.6h1.2c0.1,0.9,0.3,1.9,0.6,2.7
	c0.3,0.8,0.8,1.6,1.5,2.2c0.6,0.6,1.3,1.1,2.2,1.5c0.9,0.4,1.8,0.5,2.7,0.5C160.3,21.7,161.2,21.5,162.1,21.2L162.1,21.2z
	 M161.9,16.6c-0.1,0.7-0.3,1.3-0.5,2c-0.2,0.5-0.5,0.9-0.9,1.3c-0.3,0.3-0.8,0.5-1.2,0.5c-0.5,0-0.9-0.2-1.2-0.5
	c-0.4-0.4-0.7-0.8-0.9-1.3c-0.3-0.6-0.4-1.3-0.5-2c-0.2-1.6-0.2-3.3,0-4.9c0.1-0.7,0.3-1.3,0.5-2c0.2-0.5,0.5-0.9,0.9-1.3
	c0.7-0.6,1.7-0.6,2.4,0c0.4,0.4,0.7,0.8,0.9,1.3c0.3,0.6,0.4,1.3,0.5,2C162.1,13.4,162.1,15,161.9,16.6L161.9,16.6z M176.8,9.5
	c0.4,0.2,0.7,0.5,1,0.9c0.3,0.5,0.6,1.1,0.7,1.7c0.2,0.9,0.3,1.8,0.3,2.7c0,0.9-0.1,1.8-0.3,2.7c-0.1,0.6-0.4,1.2-0.7,1.7
	c-0.2,0.4-0.6,0.7-1,0.9c-0.6,0.3-1.3,0.3-1.9,0c-0.4-0.2-0.7-0.5-1-0.9c-0.3-0.5-0.6-1.1-0.7-1.7c-0.2-0.9-0.3-1.8-0.3-2.7
	c0-0.9,0.1-1.8,0.3-2.7c0.1-0.6,0.4-1.2,0.7-1.7c0.2-0.4,0.6-0.7,1-0.9C175.5,9.2,176.2,9.2,176.8,9.5L176.8,9.5z M180.5,4.5
	c0.6-0.1,1.1-0.4,1.5-0.8c0.2-0.3,0.3-0.8,0.4-1.2V0h-0.9c-0.1,0.4-0.5,0.8-0.9,0.9c-0.7,0.3-1.4,0.5-2.1,0.6l-4.3,1
	c-0.8,0.2-1.5,0.5-2.2,0.9c-0.7,0.4-1.3,1-1.7,1.8c-0.5,1-0.9,2-1.1,3.1c-0.3,1.6-0.4,3.2-0.4,4.9V14c0,2.5,0.6,4.4,1.9,5.7
	c1.4,1.4,3.2,2.1,5.2,2c1.9,0.1,3.7-0.5,5.2-1.7c1.3-1.1,1.9-2.9,1.9-5.3c0-1.1-0.1-2.1-0.5-3.1c-0.3-0.8-0.8-1.5-1.4-2.2
	c-0.6-0.6-1.3-1-2.1-1.3c-0.8-0.3-1.7-0.4-2.6-0.4c-1.3-0.1-2.5,0.3-3.5,1.1c-0.9,0.8-1.6,1.8-2,2.9h-0.2c0-0.9,0.2-1.7,0.4-2.5
	c0.2-0.7,0.6-1.3,1-1.8c0.4-0.5,0.9-0.9,1.5-1.2c0.5-0.3,1.1-0.5,1.7-0.7L180.5,4.5z M186.7,21.4h3.7l5.6-10.6v10.6h4V6.9h-3.7
	l-5.6,10.6v-6.6c0-0.6,0-1.3-0.1-1.9c-0.1-0.4-0.2-0.9-0.4-1.2c-0.2-0.3-0.5-0.5-0.9-0.7c-0.4-0.1-0.9-0.2-1.3-0.2h-3.7v0.9h0.3
	c0.9,0,1.5,0.3,1.8,0.8c0.3,0.7,0.4,1.5,0.4,2.2L186.7,21.4L186.7,21.4z M220.1,6.6H216l-4,9.6l-4.6-9.3h-3.8v14.5h1.5V10.5
	l5.4,10.9h1l4.5-10.6v5.4c0,2,0.5,3.5,1.5,4.5c1,1,2.6,1.5,4.8,1.5v-0.8c-0.8-0.1-1.5-0.7-1.8-1.4c-0.4-1.2-0.6-2.5-0.5-3.8
	L220.1,6.6L220.1,6.6z M228.9,14.2c0.2-0.1,0.5-0.1,0.7-0.2c0.2,0,0.4,0,0.6,0c0.3,0,0.7,0.1,1,0.2c0.3,0.1,0.6,0.3,0.9,0.5
	c0.3,0.3,0.5,0.6,0.6,1c0.3,1,0.3,2,0,2.9c-0.1,0.4-0.4,0.7-0.6,0.9c-0.3,0.2-0.6,0.4-0.9,0.5c-0.3,0.1-0.7,0.2-1,0.2
	c-0.2,0-0.4,0-0.6,0c-0.3,0-0.5-0.1-0.7-0.2V14.2L228.9,14.2z M224.9,21.4h6c1.6,0.1,3.2-0.3,4.6-1.1c1.8-1.2,2.3-3.6,1.1-5.3
	c-0.3-0.4-0.6-0.8-1.1-1.1c-1.4-0.8-3-1.2-4.6-1.1h-2v-1.8c0-0.6,0-1.3-0.1-1.9c-0.1-0.4-0.2-0.9-0.4-1.2c-0.2-0.3-0.5-0.5-0.9-0.7
	c-0.4-0.1-0.9-0.2-1.3-0.2h-3.7v0.9h0.3c0.9,0,1.5,0.3,1.8,0.8c0.3,0.7,0.4,1.5,0.4,2.2L224.9,21.4L224.9,21.4z M242.8,6.9h-4v10.5
	c0,0.6,0,1.3,0.1,1.9c0.1,0.4,0.2,0.9,0.4,1.2c0.2,0.3,0.5,0.5,0.9,0.6c0.4,0.1,0.9,0.2,1.3,0.2h3.7v-0.9H245
	c-0.9,0-1.5-0.3-1.8-0.8c-0.3-0.7-0.4-1.5-0.4-2.2L242.8,6.9L242.8,6.9z M246,21.4h2.1l4.1-5l1.5,2.5c0.4,0.7,0.9,1.3,1.6,1.8
	c0.7,0.5,1.5,0.7,2.4,0.7h2.9v-0.6c-0.5-0.1-1.1-0.4-1.5-0.7c-0.6-0.5-1-1.1-1.4-1.7l-3-5l5.2-6.4h-2.1l-4.1,5l-1.5-2.5
	c-0.4-0.7-0.9-1.3-1.6-1.8c-0.7-0.5-1.5-0.7-2.4-0.7h-2.9v0.6c0.5,0.1,1.1,0.4,1.5,0.7c0.6,0.5,1,1.1,1.4,1.7l3,5L246,21.4z
	 M283.5,6.9h-1.6l-3.8,9.9l-3.6-7.8c-0.3-0.7-0.9-1.4-1.6-1.8c-0.7-0.5-1.6-0.7-2.4-0.7h-2.7v0.6c1.2,0.1,2.2,1,2.9,2.5l5.6,12.1
	l-0.6,1.7c-0.2,0.5-0.4,1-0.8,1.5c-0.3,0.4-0.6,0.7-1,0.9c-0.4,0.2-0.8,0.4-1.2,0.5c-0.5,0.1-1,0.1-1.5,0.1v1.1h1.2
	c0.5,0,1-0.1,1.5-0.2c0.5-0.1,0.9-0.3,1.3-0.6c0.4-0.4,0.8-0.8,1.1-1.3c0.4-0.6,0.7-1.3,1-2.1L283.5,6.9z M285.9,21.4h4V8.3h2.8
	c0.8,0,1.6,0.2,2.2,0.7c0.6,0.7,0.9,1.6,0.8,2.5h0.9V9.4c0-0.3,0-0.6-0.1-0.9c-0.1-0.3-0.2-0.5-0.4-0.8c-0.2-0.2-0.4-0.4-0.7-0.6
	c-0.4-0.2-0.8-0.2-1.1-0.2h-10.7v0.9h0.2c0.9,0,1.5,0.3,1.8,0.8c0.3,0.7,0.4,1.5,0.4,2.2L285.9,21.4L285.9,21.4z M308.8,16.6
	c-0.1,0.7-0.3,1.3-0.6,2c-0.2,0.5-0.6,1-1,1.3c-0.8,0.6-2,0.6-2.8,0c-0.4-0.3-0.8-0.8-1-1.3c-0.3-0.6-0.5-1.3-0.6-2
	c-0.3-1.6-0.3-3.3,0-4.9c0.1-0.7,0.3-1.3,0.6-2c0.2-0.5,0.6-1,1-1.3c0.8-0.6,2-0.6,2.8,0c0.4,0.3,0.8,0.8,1,1.3
	c0.3,0.6,0.5,1.3,0.6,2C309.1,13.4,309.1,15,308.8,16.6L308.8,16.6z M298.9,17.1c0.3,0.9,0.8,1.7,1.5,2.4c0.7,0.7,1.5,1.2,2.3,1.6
	c2,0.8,4.2,0.8,6.2,0c0.9-0.4,1.7-0.9,2.3-1.6c0.6-0.7,1.1-1.5,1.5-2.4c0.7-1.9,0.7-4,0-5.9c-0.3-0.9-0.8-1.7-1.5-2.4
	c-0.7-0.7-1.5-1.2-2.3-1.6c-2-0.8-4.2-0.8-6.2,0c-0.9,0.4-1.7,0.9-2.3,1.6c-0.6,0.7-1.1,1.5-1.5,2.4
	C298.2,13.1,298.2,15.2,298.9,17.1L298.9,17.1z M335.9,20V6.9h-4V20h-3.6V6.9h-4V20h-3.6v-9.1c0-0.6,0-1.3-0.1-1.9
	c-0.1-0.4-0.2-0.9-0.4-1.2c-0.2-0.3-0.5-0.5-0.9-0.7c-0.4-0.1-0.9-0.2-1.3-0.2h-3.7v0.9h0.3c0.9,0,1.5,0.3,1.8,0.8
	c0.3,0.7,0.4,1.5,0.4,2.2v10.5h16.3c0.5,0,0.9,0.1,1.3,0.2c0.4,0.1,0.8,0.4,1,0.8c0.3,0.5,0.6,1,0.7,1.5c0.2,0.8,0.3,1.6,0.4,2.5
	h1.4v-5.2c0-0.6-0.4-1.1-1-1.1c0,0,0,0-0.1,0L335.9,20L335.9,20z M344.5,19.1c-0.6-0.9-0.9-2.3-0.9-4.3h9.3c0-0.2,0-0.4,0.1-0.6
	c0-0.2,0-0.4,0-0.6c0-0.2,0-0.5,0-0.7c0-0.9-0.2-1.7-0.5-2.5c-0.3-0.7-0.8-1.4-1.4-1.9c-0.6-0.5-1.4-1-2.2-1.2
	c-0.9-0.3-1.8-0.5-2.7-0.4c-0.9,0-1.8,0.2-2.7,0.5c-0.8,0.3-1.5,0.8-2.2,1.4c-0.6,0.7-1.1,1.5-1.4,2.4c-0.4,1-0.5,2.2-0.5,3.3
	c0,1,0.2,2,0.5,3c0.3,0.9,0.8,1.7,1.4,2.4c0.6,0.7,1.4,1.2,2.2,1.6c0.9,0.4,1.9,0.6,3,0.6c0.8,0,1.5-0.1,2.2-0.3
	c0.6-0.2,1.1-0.4,1.6-0.8c0.4-0.3,0.8-0.6,1.2-1c0.3-0.3,0.6-0.7,0.8-1.1l-1-0.7c-0.5,0.7-1.1,1.3-1.8,1.8c-0.8,0.5-1.7,0.8-2.6,0.7
	C345.9,20.4,345,19.9,344.5,19.1L344.5,19.1z M343.5,13.4c0-0.9,0.1-1.7,0.2-2.6c0.1-0.6,0.3-1.1,0.6-1.6c0.2-0.4,0.5-0.7,0.8-0.9
	c0.3-0.2,0.7-0.3,1-0.3c0.4,0,0.7,0.1,1.1,0.3c0.4,0.2,0.6,0.5,0.8,0.9c0.3,0.5,0.4,1.1,0.5,1.6c0.1,0.8,0.2,1.7,0.2,2.6H343.5
	L343.5,13.4z M365.4,17.4c0,0.6,0,1.3,0.1,1.9c0.1,0.4,0.2,0.9,0.4,1.2c0.2,0.3,0.5,0.5,0.9,0.6c0.4,0.1,0.9,0.2,1.3,0.2h3.7v-0.9
	h-0.3c-0.9,0-1.5-0.3-1.8-0.8c-0.3-0.7-0.4-1.5-0.4-2.2V6.9h-4v6.5h-5v-2.5c0-0.6,0-1.3-0.1-1.9c-0.1-0.4-0.2-0.9-0.4-1.2
	c-0.2-0.3-0.5-0.5-0.9-0.7c-0.4-0.1-0.9-0.2-1.3-0.2h-3.7v0.9h0.3c0.9,0,1.5,0.3,1.8,0.8c0.3,0.7,0.4,1.5,0.4,2.2v10.5h4v-6.6h4.9
	L365.4,17.4L365.4,17.4z M374.3,21.4h3.7l5.6-10.6v10.6h4V6.9h-3.7l-5.6,10.6v-6.6c0-0.6,0-1.3-0.1-1.9c-0.1-0.4-0.2-0.9-0.4-1.2
	c-0.2-0.3-0.5-0.5-0.9-0.7c-0.4-0.1-0.9-0.2-1.3-0.2h-3.7v0.9h0.3c0.9,0,1.5,0.3,1.8,0.8c0.3,0.7,0.4,1.5,0.4,2.2L374.3,21.4
	L374.3,21.4z M391.9,21.4h3.7l5.6-10.6v10.6h4V6.9h-3.7l-5.6,10.6v-6.6c0-0.6,0-1.3-0.1-1.9c-0.1-0.4-0.2-0.9-0.4-1.2
	c-0.2-0.3-0.5-0.5-0.9-0.7c-0.4-0.1-0.9-0.2-1.3-0.2h-3.7v0.9h0.3c0.9,0,1.5,0.3,1.8,0.8c0.3,0.7,0.4,1.5,0.4,2.2L391.9,21.4
	L391.9,21.4z M396.1,3.2c-0.5-0.3-1-0.6-1.3-1.1l-0.9,0.6c0.4,0.8,1,1.6,1.7,2.1c1.6,1.1,3.7,1.1,5.3,0c0.7-0.5,1.3-1.3,1.7-2.1
	l-0.9-0.6c-0.4,0.4-0.8,0.8-1.3,1.1C399,3.9,397.5,3.9,396.1,3.2L396.1,3.2z"/>
</svg>
