<?xml version="1.0" encoding="utf-8"?>
<!-- Generator: Adobe Illustrator 25.2.3, SVG Export Plug-In . SVG Version: 6.00 Build 0)  -->
<svg version="1.1" id="Layer_1" xmlns="http://www.w3.org/2000/svg" xmlns:xlink="http://www.w3.org/1999/xlink" x="0px" y="0px"
	 viewBox="0 0 156.2 31.6" style="enable-background:new 0 0 156.2 31.6;" xml:space="preserve">
<style type="text/css">
	.st0{fill-rule:evenodd;clip-rule:evenodd;fill:#060707;}
</style>
<path id="История_любимых_угощений_copy" class="st0" d="M1.5,12.9h2.2l5.4-9.8v9.8h2.4V0.6H9.3l-5.4,9.8V3.1
	c0-0.4,0-0.8-0.1-1.1c0-0.3-0.1-0.5-0.3-0.7C3.4,1,3.2,0.8,3,0.8C2.8,0.7,2.5,0.6,2.2,0.6H0v0.6h0.2c0.6,0,0.9,0.2,1.1,0.5
	C1.5,2.1,1.5,2.6,1.5,3L1.5,12.9L1.5,12.9z M20,5.4c0.5,0.5,0.7,1.1,0.7,1.8h0.6c0-0.7,0-1.3-0.1-1.6c0-0.4-0.2-0.7-0.4-0.9
	c-0.3-0.3-0.7-0.4-1.1-0.5C19.1,4,18.5,4,17.9,4c-0.7,0-1.3,0.1-1.9,0.4c-0.5,0.2-1,0.6-1.4,1s-0.7,0.9-0.8,1.4
	c-0.4,1.1-0.4,2.4,0,3.5c0.2,0.5,0.5,1,0.8,1.4c0.4,0.4,0.9,0.8,1.4,1c0.6,0.3,1.3,0.4,1.9,0.4c0.5,0,0.9-0.1,1.4-0.2
	c0.4-0.1,0.7-0.3,1-0.5s0.5-0.4,0.7-0.6c0.2-0.2,0.3-0.4,0.5-0.7l-0.6-0.4c-0.3,0.4-0.7,0.8-1.1,1.1c-0.5,0.3-1,0.5-1.6,0.4
	c-1.5,0-2.3-1.2-2.3-3.7c0-1.3,0.2-2.2,0.6-2.8c0.3-0.6,0.9-0.9,1.6-0.9C18.8,4.8,19.5,5,20,5.4L20,5.4z M25.4,5v7.9h2.4V5h2.8V4.2
	h-6.7c-0.2,0-0.5,0-0.7,0.1s-0.3,0.2-0.4,0.3c-0.1,0.1-0.2,0.3-0.2,0.5s-0.1,0.4-0.1,0.5v1.3h0.6c-0.1-0.5,0.1-1.1,0.5-1.5
	C23.9,5.1,24.4,5,24.8,5H25.4L25.4,5z M37.5,10c-0.1,0.4-0.2,0.8-0.4,1.2c-0.1,0.3-0.3,0.6-0.6,0.8c-0.5,0.4-1.2,0.4-1.7,0
	c-0.3-0.2-0.5-0.5-0.6-0.8c-0.2-0.4-0.3-0.8-0.4-1.2c-0.2-1-0.2-2,0-2.9c0.1-0.4,0.2-0.8,0.4-1.2c0.1-0.3,0.3-0.6,0.6-0.8
	c0.5-0.4,1.2-0.4,1.7,0c0.3,0.2,0.5,0.5,0.6,0.8c0.2,0.4,0.3,0.8,0.4,1.2C37.6,8,37.6,9,37.5,10L37.5,10z M31.5,10.3
	c0.2,0.5,0.5,1,0.9,1.4s0.9,0.7,1.4,1c1.2,0.5,2.5,0.5,3.7,0c0.5-0.2,1-0.5,1.4-1c0.4-0.4,0.7-0.9,0.9-1.4c0.4-1.1,0.4-2.4,0-3.6
	c-0.2-0.5-0.5-1-0.9-1.4s-0.9-0.7-1.4-1c-1.2-0.5-2.5-0.5-3.7,0c-0.5,0.2-1,0.5-1.4,1c-0.4,0.4-0.7,0.9-0.9,1.4
	C31.1,7.9,31.1,9.1,31.5,10.3L31.5,10.3z M45.8,4.1c-0.2,0.1-0.5,0.1-0.7,0.2s-0.4,0.2-0.5,0.3c-0.1,0.1-0.3,0.2-0.4,0.3
	c-0.1-0.3-0.3-0.5-0.6-0.6s-0.7-0.2-1-0.2h-1.8v0.6H41c0.2,0,0.5,0,0.7,0.1S42,5,42.1,5.2c0.1,0.2,0.2,0.4,0.2,0.6s0,0.5,0,0.7v9.8
	h2.4v-3.9c0.2,0.1,0.3,0.2,0.5,0.3s0.4,0.1,0.6,0.2c0.3,0.1,0.5,0.1,0.8,0.1c0.6,0,1.2-0.1,1.8-0.4c0.5-0.2,0.9-0.6,1.3-1
	c0.3-0.4,0.6-0.9,0.7-1.4c0.3-1.2,0.3-2.4,0-3.6c-0.1-0.5-0.4-1-0.7-1.4s-0.7-0.7-1.2-1C47.6,4,46.7,3.9,45.8,4.1z M47.1,5.1
	c0.2,0.2,0.4,0.5,0.5,0.8C47.8,6.2,47.9,6.6,48,7c0.1,1,0.1,2,0,2.9c0,0.4-0.2,0.8-0.3,1.2c-0.1,0.3-0.3,0.6-0.6,0.8
	s-0.6,0.3-0.9,0.3c-0.2,0-0.4,0-0.6-0.1c-0.2,0-0.3-0.1-0.5-0.2c-0.2-0.1-0.3-0.2-0.4-0.3V6.5c0-0.1,0-0.2,0-0.4
	c0-0.1,0-0.2-0.1-0.3c0-0.1,0-0.2-0.1-0.3c0.2-0.2,0.4-0.4,0.7-0.5c0.3-0.2,0.7-0.3,1.1-0.3C46.6,4.8,46.9,4.9,47.1,5.1z M52.7,12.9
	h2.2l3.3-6.4v6.4h2.4V4.2h-2.2l-3.3,6.4v-4c0-0.4,0-0.8-0.1-1.1c0-0.3-0.1-0.5-0.3-0.7c-0.1-0.2-0.3-0.3-0.5-0.4
	c-0.3-0.1-0.5-0.1-0.8-0.1h-2.2v0.6h0.2c0.6,0,0.9,0.2,1.1,0.5c0.2,0.4,0.2,0.9,0.2,1.3L52.7,12.9L52.7,12.9z M65.7,8.1
	c-0.4-0.4-0.6-0.9-0.5-1.4c0-0.3,0-0.6,0.1-0.8c0.1-0.2,0.2-0.4,0.4-0.5C65.8,5.2,66,5.1,66.2,5s0.4-0.1,0.7-0.1
	c0.2,0,0.4,0,0.6,0.1c0.1,0,0.2,0,0.2,0v3.3c-0.1,0-0.2,0-0.2,0.1c-0.2,0.1-0.4,0.1-0.6,0.1C66.5,8.5,66,8.4,65.7,8.1L65.7,8.1z
	 M70.2,6.6c0-0.5,0.1-0.9,0.2-1.3c0.2-0.3,0.5-0.5,1.1-0.5h0.1V4.2h-4.8c-0.6,0-1.1,0-1.6,0.1s-0.9,0.2-1.3,0.5
	c-0.4,0.2-0.6,0.5-0.8,0.8c-0.2,0.4-0.3,0.8-0.3,1.2c0,0.6,0.2,1.1,0.6,1.5c0.4,0.4,1,0.7,1.6,0.8L63.9,11c-0.2,0.3-0.4,0.6-0.7,0.9
	c-0.2,0.3-0.5,0.4-0.9,0.5v0.5c0.2,0.1,0.3,0.1,0.5,0.1s0.5,0.1,0.7,0.1c0.3,0,0.6,0,0.9-0.1c0.2-0.1,0.5-0.2,0.7-0.3
	s0.4-0.3,0.5-0.5c0.2-0.2,0.3-0.5,0.4-0.7l1.1-2.2h0.8v3.6h2.4L70.2,6.6L70.2,6.6z M80.6,5h2.6v7.9h2.4V4.2h-8.4v0.6
	c0.2,0,0.5,0,0.7,0.1s0.3,0.2,0.4,0.4c0.1,0.2,0.2,0.3,0.2,0.5s0,0.4,0,0.7c0,1,0,2-0.2,3c-0.1,0.6-0.3,1.2-0.5,1.8
	c-0.2,0.4-0.4,0.7-0.7,0.9c-0.3,0.2-0.6,0.3-0.9,0.4V13c0.2,0.1,0.3,0.1,0.5,0.1s0.4,0.1,0.6,0.1c0.4,0,0.9-0.1,1.3-0.4
	c0.4-0.3,0.8-0.7,1-1.1c0.3-0.7,0.5-1.4,0.6-2.1c0.2-1,0.2-2.1,0.2-3.2L80.6,5L80.6,5z M97.3,12.7c0.5-0.2,1-0.6,1.3-1
	c0.4-0.4,0.7-0.9,0.8-1.4c0.4-1.2,0.4-2.4,0-3.6c-0.2-0.5-0.5-1-0.8-1.4c-0.4-0.4-0.8-0.7-1.3-1c-1.1-0.5-2.3-0.5-3.3,0
	c-0.5,0.2-0.9,0.5-1.3,0.9C92.3,5.5,92,6,91.8,6.4c-0.2,0.5-0.4,1.1-0.4,1.6h-0.8V6.6c0-0.4,0-0.8-0.1-1.1c0-0.3-0.1-0.5-0.3-0.7
	c-0.1-0.2-0.3-0.3-0.5-0.4c-0.3-0.1-0.5-0.1-0.8-0.1h-2.2v0.6h0.2c0.6,0,0.9,0.2,1.1,0.5c0.2,0.4,0.2,0.9,0.2,1.3V13h2.4V9h0.7
	c0,0.6,0.2,1.1,0.4,1.6c0.2,0.5,0.5,0.9,0.9,1.3c0.4,0.4,0.8,0.7,1.3,0.9s1.1,0.3,1.6,0.3C96.2,13,96.7,12.9,97.3,12.7L97.3,12.7z
	 M97.1,10c-0.1,0.4-0.2,0.8-0.3,1.2c-0.1,0.3-0.3,0.6-0.5,0.8s-0.5,0.3-0.7,0.3c-0.3,0-0.5-0.1-0.7-0.3s-0.4-0.5-0.5-0.8
	C94.2,10.8,94,10.4,94,10c-0.1-1-0.1-2,0-2.9c0.1-0.4,0.2-0.8,0.3-1.2c0.1-0.3,0.3-0.6,0.5-0.8c0.4-0.4,1-0.4,1.5,0
	c0.2,0.2,0.4,0.5,0.5,0.8C97,6.2,97.1,6.6,97.1,7C97.3,8,97.3,9,97.1,10L97.1,10z M106.1,5.7c0.2,0.1,0.4,0.3,0.6,0.5
	c0.2,0.3,0.4,0.7,0.4,1c0.1,0.5,0.2,1.1,0.2,1.6c0,0.6,0,1.1-0.2,1.6c-0.1,0.4-0.2,0.7-0.4,1c-0.1,0.2-0.3,0.4-0.6,0.5
	c-0.4,0.2-0.8,0.2-1.2,0c-0.2-0.1-0.4-0.3-0.6-0.5c-0.2-0.3-0.4-0.7-0.4-1c-0.1-0.5-0.2-1.1-0.2-1.6s0-1.1,0.2-1.6
	c0.1-0.4,0.2-0.7,0.4-1c0.1-0.2,0.3-0.4,0.6-0.5C105.3,5.5,105.7,5.5,106.1,5.7L106.1,5.7z M108.3,2.7c0.4,0,0.7-0.2,0.9-0.5
	c0.1-0.2,0.2-0.5,0.2-0.7V0h-0.6c-0.1,0.3-0.3,0.5-0.5,0.5c-0.4,0.2-0.8,0.3-1.2,0.4l-2.6,0.6c-0.5,0.1-0.9,0.3-1.3,0.5
	c-0.4,0.3-0.8,0.6-1,1.1c-0.3,0.6-0.6,1.2-0.7,1.8c-0.2,1-0.2,1.9-0.2,2.9v0.6c0,1.5,0.4,2.6,1.2,3.4c0.8,0.8,1.9,1.3,3.1,1.2
	c1.1,0.1,2.2-0.3,3.1-1c0.8-0.7,1.2-1.7,1.2-3.2c0-0.6-0.1-1.3-0.3-1.9c-0.2-0.5-0.5-0.9-0.8-1.3c-0.4-0.3-0.8-0.6-1.2-0.8
	c-0.5-0.2-1-0.3-1.5-0.2c-0.8,0-1.5,0.2-2.1,0.6c-0.6,0.5-1,1.1-1.2,1.8h-0.1c0-0.5,0.1-1,0.3-1.5c0.1-0.4,0.3-0.8,0.6-1.1
	c0.2-0.3,0.5-0.5,0.9-0.7c0.3-0.2,0.7-0.3,1-0.4L108.3,2.7z M112,12.9h2.2l3.3-6.4v6.4h2.4V4.2h-2.2l-3.3,6.4v-4
	c0-0.4,0-0.8-0.1-1.1c0-0.3-0.1-0.5-0.3-0.7c-0.1-0.2-0.3-0.3-0.5-0.4c-0.3-0.1-0.5-0.1-0.8-0.1h-2.2v0.6h0.2c0.6,0,0.9,0.2,1.1,0.5
	c0.2,0.4,0.2,0.9,0.2,1.3L112,12.9L112,12.9z M132,4h-2.4l-2.4,5.8l-2.7-5.6h-2.3v8.7h0.9V6.3l3.2,6.5h0.6l2.7-6.4v3.2
	c0,1.2,0.3,2.1,0.9,2.7c0.6,0.6,1.5,0.9,2.9,0.9v-0.5c-0.5-0.1-0.9-0.4-1.1-0.9c-0.2-0.7-0.3-1.5-0.3-2.3L132,4L132,4z M137.3,8.5
	c0.1-0.1,0.3-0.1,0.4-0.1c0.1,0,0.3,0,0.4,0c0.2,0,0.4,0,0.6,0.1c0.2,0.1,0.4,0.2,0.5,0.3c0.2,0.2,0.3,0.4,0.4,0.6
	c0.2,0.6,0.2,1.2,0,1.8c-0.1,0.2-0.2,0.4-0.4,0.6c-0.2,0.1-0.3,0.2-0.5,0.3s-0.4,0.1-0.6,0.1c-0.1,0-0.3,0-0.4,0
	c-0.2,0-0.3-0.1-0.4-0.1V8.5L137.3,8.5z M134.9,12.9h3.6c1,0,1.9-0.2,2.8-0.7c1.1-0.7,1.3-2.1,0.6-3.2c-0.2-0.3-0.4-0.5-0.6-0.6
	c-0.8-0.5-1.8-0.7-2.8-0.7h-1.2V6.6c0-0.4,0-0.8-0.1-1.1c0-0.3-0.1-0.5-0.3-0.7c-0.1-0.2-0.3-0.3-0.5-0.4c-0.3-0.1-0.5-0.1-0.8-0.1
	h-2.2v0.6h0.2c0.6,0,0.9,0.2,1.1,0.5c0.2,0.4,0.2,0.9,0.2,1.3V12.9L134.9,12.9z M145.7,4.2h-2.4v6.3c0,0.4,0,0.8,0.1,1.2
	c0,0.3,0.1,0.5,0.3,0.7c0.1,0.2,0.3,0.3,0.5,0.4c0.3,0.1,0.5,0.1,0.8,0.1h2.2v-0.6H147c-0.6,0-0.9-0.2-1.1-0.5
	c-0.2-0.4-0.2-0.9-0.2-1.3V4.2L145.7,4.2z M147.6,12.9h1.2l2.4-3l0.9,1.5c0.2,0.4,0.6,0.8,0.9,1.1c0.4,0.3,0.9,0.4,1.4,0.4h1.8v-0.4
	c-0.3-0.1-0.6-0.2-0.9-0.4c-0.3-0.3-0.6-0.6-0.8-1l-1.8-3l3.1-3.8h-1.2l-2.4,3l-0.9-1.5c-0.2-0.4-0.6-0.8-0.9-1.1
	c-0.4-0.3-0.9-0.4-1.4-0.4h-1.8v0.4c0.3,0.1,0.6,0.2,0.9,0.4c0.3,0.3,0.6,0.6,0.8,1l1.8,3L147.6,12.9z M55,19.2h-1l-2.3,6l-2.1-4.7
	c-0.2-0.4-0.5-0.8-0.9-1.1c-0.4-0.3-0.9-0.4-1.5-0.4h-1.6v0.4c0.7,0.1,1.3,0.6,1.7,1.5l3.3,7.3l-0.4,1c-0.1,0.3-0.3,0.6-0.5,0.9
	c-0.2,0.2-0.4,0.4-0.6,0.5c-0.2,0.1-0.5,0.2-0.7,0.3C48.1,31,47.8,31,47.5,31v0.6h0.7c0.3,0,0.6,0,0.9-0.1c0.3-0.1,0.5-0.2,0.8-0.4
	c0.3-0.2,0.5-0.5,0.7-0.8c0.2-0.4,0.4-0.8,0.6-1.2L55,19.2z M56.4,27.9h2.4V20h1.7c0.5,0,0.9,0.1,1.3,0.4c0.4,0.4,0.5,1,0.5,1.5h0.6
	v-1.3c0-0.2,0-0.4-0.1-0.5c0-0.2-0.1-0.3-0.2-0.5c-0.1-0.1-0.3-0.3-0.4-0.3c-0.2-0.1-0.5-0.1-0.7-0.1H55v0.6h0.1
	c0.6,0,0.9,0.2,1.1,0.5c0.2,0.4,0.2,0.9,0.2,1.3L56.4,27.9L56.4,27.9z M70.1,25c-0.1,0.4-0.2,0.8-0.4,1.2c-0.1,0.3-0.3,0.6-0.6,0.8
	c-0.5,0.4-1.2,0.4-1.7,0c-0.3-0.2-0.5-0.5-0.6-0.8c-0.2-0.4-0.3-0.8-0.4-1.2c-0.2-1-0.2-2,0-2.9c0.1-0.4,0.2-0.8,0.4-1.2
	c0.1-0.3,0.3-0.6,0.6-0.8c0.5-0.4,1.2-0.4,1.7,0c0.3,0.2,0.5,0.5,0.6,0.8c0.2,0.4,0.3,0.8,0.4,1.2C70.3,23.1,70.3,24,70.1,25
	L70.1,25z M64.2,25.3c0.2,0.5,0.5,1,0.9,1.4s0.9,0.7,1.4,1c1.2,0.5,2.5,0.5,3.7,0c0.5-0.2,1-0.5,1.4-1c0.4-0.4,0.7-0.9,0.9-1.4
	c0.4-1.1,0.4-2.4,0-3.6c-0.2-0.5-0.5-1-0.9-1.4s-0.9-0.7-1.4-1c-1.2-0.5-2.5-0.5-3.7,0c-0.5,0.2-1,0.5-1.4,1
	c-0.4,0.4-0.7,0.9-0.9,1.4C63.8,22.9,63.8,24.2,64.2,25.3L64.2,25.3z M86.4,27.1v-7.9H84v7.9h-2.1v-7.9h-2.4v7.9h-2.1v-5.5
	c0-0.4,0-0.8-0.1-1.1c0-0.3-0.1-0.5-0.3-0.7c-0.1-0.2-0.3-0.3-0.5-0.4c-0.3-0.1-0.5-0.1-0.8-0.1h-2.2v0.6h0.2c0.6,0,0.9,0.2,1.1,0.5
	c0.2,0.4,0.3,0.9,0.2,1.3V28h9.8c0.3,0,0.5,0,0.8,0.1c0.2,0.1,0.5,0.2,0.6,0.5c0.2,0.3,0.3,0.6,0.4,0.9c0.1,0.5,0.2,1,0.2,1.5h0.8
	v-3.1c0-0.3-0.3-0.6-0.6-0.6l0,0L86.4,27.1L86.4,27.1z M91.5,26.5C91.1,26,91,25.1,91,23.9h5.6c0-0.1,0-0.2,0-0.4c0-0.1,0-0.2,0-0.4
	c0-0.1,0-0.3,0-0.4c0-0.5-0.1-1-0.3-1.5c-0.2-0.4-0.5-0.8-0.9-1.2c-0.4-0.3-0.8-0.6-1.3-0.7C93.6,19.1,93,19,92.5,19
	c-0.6,0-1.1,0.1-1.6,0.3c-0.5,0.2-0.9,0.5-1.3,0.9s-0.7,0.9-0.9,1.4c-0.2,0.6-0.3,1.3-0.3,2c0,0.6,0.1,1.2,0.3,1.8
	c0.2,0.5,0.5,1,0.9,1.4s0.8,0.7,1.3,1c0.6,0.2,1.2,0.4,1.8,0.3c0.4,0,0.9-0.1,1.3-0.2c0.3-0.1,0.7-0.3,1-0.5s0.5-0.4,0.7-0.6
	s0.3-0.4,0.5-0.7l-0.6-0.4c-0.3,0.4-0.7,0.8-1.1,1.1c-0.5,0.3-1,0.5-1.6,0.4C92.4,27.3,91.9,27,91.5,26.5L91.5,26.5z M91,23.1
	c0-0.5,0-1,0.1-1.5c0.1-0.3,0.2-0.7,0.3-1c0.1-0.2,0.3-0.4,0.5-0.5s0.4-0.2,0.6-0.2s0.4,0.1,0.6,0.2s0.4,0.3,0.5,0.5
	c0.2,0.3,0.3,0.6,0.3,1c0.1,0.5,0.1,1,0.1,1.5H91L91,23.1z M104.1,25.5c0,0.4,0,0.8,0.1,1.2c0,0.3,0.1,0.5,0.3,0.7
	c0.1,0.2,0.3,0.3,0.5,0.4c0.3,0.1,0.5,0.1,0.8,0.1h2.2v-0.6h-0.2c-0.6,0-0.9-0.2-1.1-0.5c-0.2-0.4-0.2-0.9-0.2-1.3v-6.3h-2.4v3.9h-3
	v-1.5c0-0.4,0-0.8-0.1-1.1c0-0.3-0.1-0.5-0.3-0.7c-0.1-0.2-0.3-0.3-0.5-0.4c-0.3-0.1-0.5-0.1-0.8-0.1h-2.2v0.6h0.2
	c0.6,0,0.9,0.2,1.1,0.5c0.2,0.4,0.2,0.9,0.2,1.3V28h2.4v-4h3V25.5L104.1,25.5z M109.4,27.9h2.2l3.3-6.4v6.4h2.4v-8.7h-2.2l-3.3,6.4
	v-4c0-0.4,0-0.8-0.1-1.1c0-0.3-0.1-0.5-0.3-0.7c-0.1-0.2-0.3-0.3-0.5-0.4c-0.3-0.1-0.5-0.1-0.8-0.1h-2.2v0.6h0.2
	c0.6,0,0.9,0.2,1.1,0.5c0.2,0.4,0.3,0.9,0.2,1.3L109.4,27.9L109.4,27.9z M120,27.9h2.2l3.3-6.4v6.4h2.4v-8.7h-2.2l-3.3,6.4v-4
	c0-0.4,0-0.8-0.1-1.1c0-0.3-0.1-0.5-0.3-0.7c-0.1-0.2-0.3-0.3-0.5-0.4c-0.3-0.1-0.5-0.1-0.8-0.1h-2.2v0.6h0.2c0.6,0,0.9,0.2,1.1,0.5
	c0.2,0.4,0.2,0.9,0.2,1.3L120,27.9L120,27.9z M122.5,17c-0.3-0.2-0.6-0.4-0.8-0.6l-0.5,0.4c0.2,0.5,0.6,0.9,1,1.3
	c1,0.6,2.2,0.6,3.2,0c0.4-0.3,0.8-0.8,1-1.3l-0.5-0.4c-0.2,0.3-0.5,0.5-0.8,0.6C124.3,17.4,123.3,17.4,122.5,17L122.5,17z"/>
</svg>
