<?xml version="1.0" encoding="utf-8"?>
<!-- Generator: Adobe Illustrator 25.2.3, SVG Export Plug-In . SVG Version: 6.00 Build 0)  -->
<svg version="1.1" id="Layer_1" xmlns="http://www.w3.org/2000/svg" xmlns:xlink="http://www.w3.org/1999/xlink" x="0px" y="0px"
	 viewBox="0 0 152.3 26.3" style="enable-background:new 0 0 152.3 26.3;" xml:space="preserve">
<style type="text/css">
	.st0{fill:#060707;}
</style>
<g>
	<g>
		<path class="st0" d="M9.4,3.7c0-0.5,0-0.9,0-1.3c0-0.4-0.2-0.8-0.4-1.1C8.6,0.9,8.2,0.6,7.6,0.4C7,0.1,6.2,0,5.2,0
			C4.5,0,3.8,0.1,3.1,0.4C2.5,0.7,1.9,1.1,1.5,1.6C1,2.1,0.7,2.7,0.4,3.4C0.1,4.1,0,4.9,0,5.6c0,0.8,0.1,1.5,0.3,2.1
			c0.2,0.6,0.6,1.2,1,1.7c0.4,0.5,1,0.9,1.6,1.1C3.6,10.8,4.4,11,5.2,11c1.1,0,2-0.2,2.7-0.6c0.7-0.4,1.3-1,1.8-1.9L9.2,8
			C8.8,8.8,8.3,9.3,7.7,9.7c-0.6,0.4-1.3,0.6-2,0.6c-0.6,0-1.2-0.1-1.6-0.4C3.6,9.6,3.3,9.3,3,8.9C2.7,8.4,2.5,7.9,2.4,7.4
			C2.3,6.8,2.2,6.2,2.2,5.6c0-1,0.1-1.7,0.3-2.4c0.2-0.6,0.4-1.1,0.7-1.5c0.3-0.4,0.7-0.7,1.1-0.8c0.4-0.2,0.9-0.2,1.4-0.2
			c0.9,0,1.6,0.3,2.1,0.8C8.3,2,8.7,2.7,8.9,3.7H9.4z"/>
		<path class="st0" d="M19.9,10.7h1.9l2.8-5.4v5.4h2V3.3h-1.9l-2.8,5.4V5.3c0-0.4,0-0.7-0.1-1c0-0.3-0.1-0.5-0.2-0.6
			c-0.1-0.2-0.3-0.3-0.4-0.3c-0.2-0.1-0.4-0.1-0.7-0.1h-1.9v0.5h0.2c0.5,0,0.8,0.1,0.9,0.4c0.1,0.3,0.2,0.7,0.2,1.1V10.7z M22,1.4
			c-0.3-0.2-0.5-0.3-0.7-0.5l-0.4,0.3c0.2,0.4,0.5,0.8,0.9,1.1c0.4,0.3,0.8,0.4,1.3,0.4c0.5,0,1-0.1,1.3-0.4
			c0.4-0.3,0.7-0.6,0.9-1.1l-0.4-0.3c-0.2,0.2-0.4,0.4-0.7,0.5c-0.3,0.2-0.7,0.2-1.1,0.2S22.3,1.6,22,1.4z"/>
		<path class="st0" d="M30.4,0.7c-0.2-0.2-0.5-0.4-0.9-0.4c-0.2,0-0.4,0.1-0.6,0.2c-0.2,0.2-0.3,0.4-0.3,0.6c0,0.3,0.1,0.6,0.3,0.8
			c0.2,0.2,0.5,0.4,0.9,0.4c0.2,0,0.4-0.1,0.6-0.2c0.2-0.2,0.3-0.4,0.3-0.6C30.7,1.3,30.6,1,30.4,0.7z M28.8,10.7h2V5.3
			c0-0.4,0-0.7-0.1-1c0-0.3-0.1-0.5-0.2-0.6c-0.1-0.2-0.3-0.3-0.4-0.3c-0.2-0.1-0.4-0.1-0.7-0.1h-1.9v0.5h0.2c0.5,0,0.8,0.1,0.9,0.4
			c0.1,0.3,0.2,0.7,0.2,1.1V10.7z"/>
		<path class="st0" d="M36.6,9.6c0.3,0.5,0.7,0.8,1.1,1c0.4,0.2,0.8,0.3,1.2,0.3c0.2,0,0.4,0,0.6,0c0.2,0,0.4-0.1,0.5-0.1v-0.4
			c-0.2-0.1-0.5-0.2-0.7-0.4c-0.2-0.2-0.5-0.5-0.8-0.8l-2.1-2.8L38,4.5c0.2-0.3,0.5-0.5,0.7-0.6c0.3-0.1,0.5-0.2,0.9-0.2V3.3h-0.3
			c-0.3,0-0.5,0-0.7,0.1c-0.2,0.1-0.4,0.1-0.6,0.2c-0.2,0.1-0.3,0.2-0.5,0.4c-0.2,0.2-0.3,0.3-0.5,0.5l-1.9,2.3V5.3
			c0-0.4,0-0.7-0.1-1c0-0.3-0.1-0.5-0.2-0.6c-0.1-0.2-0.3-0.3-0.4-0.3c-0.2-0.1-0.4-0.1-0.7-0.1h-1.9v0.5h0.2c0.5,0,0.8,0.1,0.9,0.4
			c0.1,0.3,0.2,0.7,0.2,1.1v5.3h2V7.6L36.6,9.6z"/>
		<path class="st0" d="M42.9,4v6.7h2V4h2.4V3.3h-5.7c-0.2,0-0.4,0-0.6,0.1c-0.2,0.1-0.3,0.2-0.4,0.3c-0.1,0.1-0.1,0.2-0.2,0.4
			c0,0.2-0.1,0.3-0.1,0.5v1.1h0.5c0-0.6,0.1-1,0.4-1.3C41.5,4.1,41.9,4,42.4,4H42.9z"/>
		<path class="st0" d="M50.9,0.7c-0.2-0.2-0.5-0.4-0.9-0.4c-0.2,0-0.4,0.1-0.6,0.2c-0.2,0.2-0.3,0.4-0.3,0.6c0,0.3,0.1,0.6,0.3,0.8
			c0.2,0.2,0.5,0.4,0.9,0.4c0.2,0,0.4-0.1,0.6-0.2c0.2-0.2,0.3-0.4,0.3-0.6C51.2,1.3,51.1,1,50.9,0.7z M49.3,10.7h2V5.3
			c0-0.4,0-0.7-0.1-1c0-0.3-0.1-0.5-0.2-0.6c-0.1-0.2-0.3-0.3-0.4-0.3c-0.2-0.1-0.4-0.1-0.7-0.1H48v0.5h0.2c0.5,0,0.8,0.1,0.9,0.4
			c0.1,0.3,0.2,0.7,0.2,1.1V10.7z"/>
		<path class="st0" d="M59,4v6.7h2V4h2.4V3.3h-5.7c-0.2,0-0.4,0-0.6,0.1c-0.2,0.1-0.3,0.2-0.4,0.3c-0.1,0.1-0.1,0.2-0.2,0.4
			c0,0.2-0.1,0.3-0.1,0.5v1.1H57c0-0.6,0.1-1,0.4-1.3C57.7,4.1,58.1,4,58.5,4H59z"/>
		<path class="st0" d="M68.5,9c-0.1,0.2-0.2,0.4-0.3,0.5c-0.1,0.1-0.3,0.2-0.4,0.3c-0.2,0.1-0.4,0.2-0.6,0.2c-0.3,0-0.6-0.1-0.7-0.3
			c-0.2-0.2-0.3-0.6-0.3-1c0-0.6,0.2-1,0.5-1.3c0.3-0.3,0.9-0.4,1.6-0.4h0.2V9z M65.9,3.3c-0.4,0.1-0.7,0.2-0.9,0.4
			c-0.2,0.2-0.3,0.5-0.3,0.7c0,0.3-0.1,0.6-0.1,0.8h0.9c0.1-0.3,0.1-0.5,0.3-0.7c0.1-0.2,0.2-0.3,0.4-0.4c0.1-0.1,0.3-0.2,0.4-0.2
			c0.2,0,0.3-0.1,0.5-0.1c0.5,0,0.8,0.2,1.1,0.5c0.3,0.4,0.4,1,0.4,2h-0.2c-0.9,0-1.6,0.1-2.1,0.2c-0.5,0.1-1,0.3-1.3,0.5
			c-0.3,0.2-0.5,0.5-0.7,0.7C64.1,8,64,8.3,64,8.7c0,0.6,0.2,1.1,0.7,1.5c0.5,0.4,1.1,0.6,2,0.6c0.3,0,0.6,0,0.9-0.1
			c0.2-0.1,0.4-0.2,0.6-0.3c0.2-0.1,0.3-0.3,0.4-0.4h0.1l0.6,0.7h1.3V6.4c0-1.1-0.3-1.9-0.8-2.5c-0.6-0.5-1.4-0.8-2.4-0.8
			C66.8,3.1,66.4,3.2,65.9,3.3z"/>
		<path class="st0" d="M83.3,9c-0.1,0.2-0.2,0.4-0.3,0.5c-0.1,0.1-0.3,0.2-0.4,0.3c-0.2,0.1-0.4,0.2-0.6,0.2c-0.3,0-0.6-0.1-0.7-0.3
			c-0.2-0.2-0.3-0.6-0.3-1c0-0.6,0.2-1,0.5-1.3c0.3-0.3,0.9-0.4,1.6-0.4h0.2V9z M80.7,3.3c-0.4,0.1-0.7,0.2-0.9,0.4
			c-0.2,0.2-0.3,0.5-0.3,0.7c0,0.3-0.1,0.6-0.1,0.8h0.9c0.1-0.3,0.1-0.5,0.3-0.7c0.1-0.2,0.2-0.3,0.4-0.4C81,4,81.1,3.9,81.3,3.9
			c0.2,0,0.3-0.1,0.5-0.1c0.5,0,0.8,0.2,1.1,0.5c0.3,0.4,0.4,1,0.4,2h-0.2c-0.9,0-1.6,0.1-2.1,0.2c-0.5,0.1-1,0.3-1.3,0.5
			c-0.3,0.2-0.5,0.5-0.7,0.7c-0.1,0.3-0.2,0.6-0.2,1c0,0.6,0.2,1.1,0.7,1.5c0.5,0.4,1.1,0.6,2,0.6c0.3,0,0.6,0,0.9-0.1
			c0.2-0.1,0.4-0.2,0.6-0.3c0.2-0.1,0.3-0.3,0.4-0.4h0.1l0.6,0.7h1.3V6.4c0-1.1-0.3-1.9-0.8-2.5c-0.6-0.5-1.4-0.8-2.4-0.8
			C81.6,3.1,81.1,3.2,80.7,3.3z"/>
		<path class="st0" d="M95.5,3.1h-2.1l-2,4.9L89,3.3h-1.9v7.4h0.8V5.1l2.7,5.6h0.5l2.3-5.4V8c0,1,0.2,1.8,0.7,2.3
			c0.5,0.5,1.3,0.8,2.5,0.8v-0.4c-0.4-0.1-0.7-0.3-0.9-0.7c-0.2-0.4-0.3-1.1-0.3-1.9V3.1z"/>
		<path class="st0" d="M99.6,10c0.2-0.4,0.3-0.8,0.4-1.2c0.1-0.4,0.2-0.9,0.3-1.3c0.1-0.5,0.1-1,0.1-1.6c0-0.6,0-1.2,0-1.8h2.2v6
			H99.6z M103.2,10.7c0.3,0,0.5,0,0.7,0.1c0.2,0.1,0.4,0.2,0.5,0.4c0.1,0.2,0.3,0.4,0.4,0.8c0.1,0.3,0.2,0.7,0.2,1.3h0.8v-2.7
			c0-0.2-0.1-0.3-0.2-0.4c-0.1-0.1-0.2-0.2-0.4-0.2h-0.5V3.3h-7v0.5c0.3,0,0.5,0,0.6,0.1c0.2,0.1,0.3,0.2,0.4,0.3
			c0.1,0.1,0.1,0.3,0.2,0.4c0,0.2,0,0.4,0,0.6c0,0.7-0.1,1.5-0.2,2.3c-0.1,0.8-0.4,1.7-0.7,2.4h-0.6c-0.2,0-0.3,0.1-0.4,0.2
			c-0.1,0.1-0.2,0.2-0.2,0.4v2.7h0.8c0-0.5,0.1-0.9,0.2-1.3c0.1-0.3,0.2-0.6,0.4-0.8c0.1-0.2,0.3-0.3,0.5-0.4
			c0.2-0.1,0.4-0.1,0.7-0.1H103.2z"/>
		<path class="st0" d="M110.8,9c-0.1,0.2-0.2,0.4-0.3,0.5c-0.1,0.1-0.3,0.2-0.4,0.3c-0.2,0.1-0.4,0.2-0.6,0.2
			c-0.3,0-0.6-0.1-0.7-0.3c-0.2-0.2-0.3-0.6-0.3-1c0-0.6,0.2-1,0.5-1.3c0.3-0.3,0.9-0.4,1.6-0.4h0.2V9z M108.2,3.3
			c-0.4,0.1-0.7,0.2-0.9,0.4c-0.2,0.2-0.3,0.5-0.3,0.7c0,0.3-0.1,0.6-0.1,0.8h0.9c0.1-0.3,0.1-0.5,0.3-0.7c0.1-0.2,0.2-0.3,0.4-0.4
			c0.1-0.1,0.3-0.2,0.4-0.2c0.2,0,0.3-0.1,0.5-0.1c0.5,0,0.8,0.2,1.1,0.5c0.3,0.4,0.4,1,0.4,2h-0.2c-0.9,0-1.6,0.1-2.1,0.2
			c-0.5,0.1-1,0.3-1.3,0.5c-0.3,0.2-0.5,0.5-0.7,0.7c-0.1,0.3-0.2,0.6-0.2,1c0,0.6,0.2,1.1,0.7,1.5c0.5,0.4,1.1,0.6,2,0.6
			c0.3,0,0.6,0,0.9-0.1c0.2-0.1,0.4-0.2,0.6-0.3c0.2-0.1,0.3-0.3,0.4-0.4h0.1l0.6,0.7h1.3V6.4c0-1.1-0.3-1.9-0.8-2.5
			c-0.6-0.5-1.4-0.8-2.4-0.8C109.1,3.1,108.6,3.2,108.2,3.3z"/>
		<path class="st0" d="M118,3.2c-0.2,0.1-0.4,0.1-0.6,0.2c-0.2,0.1-0.3,0.2-0.5,0.3c-0.1,0.1-0.2,0.2-0.3,0.3
			c-0.1-0.3-0.3-0.4-0.5-0.5c-0.2-0.1-0.5-0.1-0.8-0.1h-1.6v0.5h0.2c0.2,0,0.4,0,0.6,0.1c0.1,0.1,0.3,0.2,0.3,0.3
			c0.1,0.1,0.1,0.3,0.1,0.5c0,0.2,0,0.4,0,0.6v8.3h2v-3.3c0.1,0.1,0.3,0.2,0.4,0.2c0.1,0.1,0.3,0.1,0.5,0.2c0.2,0,0.4,0.1,0.7,0.1
			c0.6,0,1.1-0.1,1.5-0.3c0.4-0.2,0.8-0.5,1.1-0.8s0.5-0.8,0.6-1.2C122,8,122,7.5,122,7c0-0.5-0.1-1-0.2-1.5
			c-0.1-0.5-0.3-0.9-0.6-1.2c-0.3-0.3-0.6-0.6-1-0.8c-0.4-0.2-0.9-0.3-1.4-0.3C118.4,3.1,118.2,3.2,118,3.2z M119.1,4.1
			c0.2,0.2,0.3,0.4,0.5,0.7c0.1,0.3,0.2,0.6,0.3,1c0.1,0.4,0.1,0.8,0.1,1.2c0,0.5,0,0.9-0.1,1.2c-0.1,0.4-0.1,0.7-0.3,1
			c-0.1,0.3-0.3,0.5-0.5,0.7c-0.2,0.2-0.4,0.2-0.7,0.2c-0.2,0-0.4,0-0.5-0.1c-0.2,0-0.3-0.1-0.4-0.2c-0.1-0.1-0.3-0.1-0.4-0.2V5.2
			c0-0.1,0-0.2,0-0.3c0-0.1,0-0.2,0-0.2c0-0.1,0-0.1,0-0.2c0.1-0.1,0.3-0.3,0.6-0.4c0.2-0.1,0.6-0.2,1-0.2
			C118.7,3.8,118.9,3.9,119.1,4.1z"/>
		<path class="st0" d="M125.1,10c0.2-0.4,0.3-0.8,0.4-1.2c0.1-0.4,0.2-0.9,0.3-1.3c0.1-0.5,0.1-1,0.1-1.6c0-0.6,0-1.2,0-1.8h2.2v6
			H125.1z M128.7,10.7c0.3,0,0.5,0,0.7,0.1c0.2,0.1,0.4,0.2,0.5,0.4c0.1,0.2,0.3,0.4,0.4,0.8c0.1,0.3,0.2,0.7,0.2,1.3h0.8v-2.7
			c0-0.2-0.1-0.3-0.2-0.4c-0.1-0.1-0.2-0.2-0.4-0.2h-0.5V3.3h-7v0.5c0.3,0,0.5,0,0.6,0.1c0.2,0.1,0.3,0.2,0.4,0.3
			c0.1,0.1,0.1,0.3,0.2,0.4c0,0.2,0,0.4,0,0.6c0,0.7-0.1,1.5-0.2,2.3c-0.1,0.8-0.4,1.7-0.7,2.4h-0.6c-0.2,0-0.3,0.1-0.4,0.2
			c-0.1,0.1-0.2,0.2-0.2,0.4v2.7h0.8c0-0.5,0.1-0.9,0.2-1.3c0.1-0.3,0.2-0.6,0.4-0.8c0.1-0.2,0.3-0.3,0.5-0.4
			c0.2-0.1,0.4-0.1,0.7-0.1H128.7z"/>
		<path class="st0" d="M134.7,7c0.1,0,0.2-0.1,0.4-0.1c0.1,0,0.2,0,0.3,0c0.2,0,0.4,0,0.5,0.1c0.2,0.1,0.3,0.1,0.5,0.3
			c0.1,0.1,0.2,0.3,0.3,0.5s0.1,0.5,0.1,0.7c0,0.3,0,0.6-0.1,0.8c-0.1,0.2-0.2,0.4-0.3,0.5c-0.1,0.1-0.3,0.2-0.5,0.3
			c-0.2,0.1-0.3,0.1-0.5,0.1c-0.1,0-0.2,0-0.3,0c-0.1,0-0.3,0-0.4-0.1V7z M132.7,10.7h3.1c1,0,1.8-0.2,2.4-0.6
			c0.6-0.4,0.9-0.9,0.9-1.6c0-0.7-0.3-1.3-0.9-1.6c-0.6-0.4-1.4-0.6-2.4-0.6h-1V5.3c0-0.4,0-0.7-0.1-1c0-0.3-0.1-0.5-0.2-0.6
			c-0.1-0.2-0.3-0.3-0.4-0.3c-0.2-0.1-0.4-0.1-0.7-0.1h-1.9v0.5h0.2c0.5,0,0.8,0.1,0.9,0.4c0.1,0.3,0.2,0.7,0.2,1.1V10.7z
			 M141.8,3.3h-2v5.3c0,0.4,0,0.7,0.1,1c0,0.3,0.1,0.5,0.2,0.6c0.1,0.2,0.3,0.3,0.4,0.3c0.2,0.1,0.4,0.1,0.7,0.1h1.9v-0.5h-0.2
			c-0.5,0-0.8-0.1-0.9-0.4c-0.1-0.3-0.2-0.7-0.2-1.1V3.3z"/>
		<path class="st0" d="M77.9,4.1c0-0.2-0.1-0.3-0.2-0.4c-0.1-0.1-0.2-0.2-0.4-0.3c-0.2-0.1-0.4-0.1-0.6-0.1h-5.4v0.5h0.1
			c0.5,0,0.8,0.1,0.9,0.4c0.1,0.3,0.2,0.7,0.2,1.1v5.3h2V7h2.5V6.1h-2.5V4H76c0.5,0,0.8,0.1,1.1,0.4c0.3,0.3,0.4,0.7,0.4,1.3H78V4.6
			C78,4.4,78,4.2,77.9,4.1z"/>
		<path class="st0" d="M18,3.3h-1l-1.8,5.2l-1.8-4c-0.2-0.4-0.4-0.7-0.8-0.9c-0.4-0.2-0.8-0.3-1.2-0.3H10l0,0.5
			c0.6,0.1,1.1,0.3,1.5,1.1l2.8,6.2c0,0,0,0.5,0,3c0,0,0.3,0,0.5,0c0.1,0,0.5,0,0.5,0s0-2.4,0-3.1L18,3.3z"/>
		<path class="st0" d="M152.1,10.1c-0.1-0.1-0.2-0.2-0.4-0.2h-0.5c0,0,0,0,0,0c-0.1-0.1-0.1-0.1-0.1-0.2c-0.1-0.3-0.2-0.7-0.2-1.1
			V3.3h-2v3.3h-2.5V5.3c0-0.4,0-0.7-0.1-1c0-0.3-0.1-0.5-0.2-0.6c-0.1-0.2-0.3-0.3-0.4-0.3c-0.2-0.1-0.4-0.1-0.7-0.1H143v0.5h0.2
			c0.5,0,0.8,0.1,0.9,0.4c0.1,0.3,0.2,0.7,0.2,1.1v5.3h2V7.3h2.5v1.3c0,0.4,0,0.7,0.1,1c0,0.3,0.1,0.5,0.2,0.6
			c0.1,0.2,0.3,0.3,0.4,0.3c0.2,0.1,0.4,0.1,0.7,0.1h0.1c0,0,0,0,0,0c0.2,0.1,0.3,0.3,0.5,0.5c0.1,0.2,0.3,0.4,0.4,0.8
			c0.1,0.3,0.2,0.7,0.2,1.3h0.8v-2.7C152.3,10.4,152.3,10.2,152.1,10.1z"/>
	</g>
	<g>
		<path class="st0" d="M52.5,16.7v6.7h2v-6.7h2.4V16h-5.7c-0.2,0-0.4,0-0.6,0.1c-0.2,0.1-0.3,0.2-0.4,0.3c-0.1,0.1-0.1,0.2-0.2,0.4
			c0,0.2-0.1,0.3-0.1,0.5v1.1h0.5c0-0.6,0.1-1,0.4-1.3c0.3-0.3,0.6-0.4,1.1-0.4H52.5z"/>
		<path class="st0" d="M62,21.7c-0.1,0.2-0.2,0.4-0.3,0.5c-0.1,0.1-0.3,0.2-0.4,0.3c-0.2,0.1-0.4,0.2-0.6,0.2
			c-0.3,0-0.6-0.1-0.7-0.3c-0.2-0.2-0.3-0.6-0.3-1c0-0.6,0.2-1,0.5-1.3c0.3-0.3,0.9-0.4,1.6-0.4H62V21.7z M59.4,15.9
			c-0.4,0.1-0.7,0.2-0.9,0.4c-0.2,0.2-0.3,0.5-0.3,0.7c0,0.3-0.1,0.6-0.1,0.8H59c0.1-0.3,0.1-0.5,0.3-0.7c0.1-0.2,0.2-0.3,0.4-0.4
			c0.1-0.1,0.3-0.2,0.4-0.2c0.2,0,0.3-0.1,0.5-0.1c0.5,0,0.8,0.2,1.1,0.5c0.3,0.4,0.4,1,0.4,2h-0.2c-0.9,0-1.6,0.1-2.1,0.2
			c-0.5,0.1-1,0.3-1.3,0.5c-0.3,0.2-0.5,0.5-0.7,0.7c-0.1,0.3-0.2,0.6-0.2,1c0,0.6,0.2,1.1,0.7,1.5c0.5,0.4,1.1,0.6,2,0.6
			c0.3,0,0.6,0,0.9-0.1c0.2-0.1,0.4-0.2,0.6-0.3c0.2-0.1,0.3-0.3,0.4-0.4h0.1l0.6,0.7h1.3v-4.2c0-1.1-0.3-1.9-0.8-2.5
			c-0.6-0.5-1.4-0.8-2.4-0.8C60.3,15.8,59.9,15.9,59.4,15.9z"/>
		<path class="st0" d="M69.2,15.9c-0.2,0.1-0.4,0.1-0.6,0.2c-0.2,0.1-0.3,0.2-0.5,0.3c-0.1,0.1-0.2,0.2-0.3,0.3
			c-0.1-0.3-0.3-0.4-0.5-0.5C67.1,16,66.8,16,66.5,16h-1.6v0.5h0.2c0.2,0,0.4,0,0.6,0.1c0.1,0.1,0.3,0.2,0.3,0.3
			c0.1,0.1,0.1,0.3,0.1,0.5c0,0.2,0,0.4,0,0.6v8.3h2V23c0.1,0.1,0.3,0.2,0.4,0.2c0.1,0.1,0.3,0.1,0.5,0.2c0.2,0,0.4,0.1,0.7,0.1
			c0.6,0,1.1-0.1,1.5-0.3c0.4-0.2,0.8-0.5,1.1-0.8c0.3-0.3,0.5-0.8,0.6-1.2c0.1-0.5,0.2-1,0.2-1.5c0-0.5-0.1-1-0.2-1.5
			c-0.1-0.5-0.3-0.9-0.6-1.2c-0.3-0.3-0.6-0.6-1-0.8c-0.4-0.2-0.9-0.3-1.4-0.3C69.7,15.8,69.4,15.8,69.2,15.9z M70.3,16.8
			c0.2,0.2,0.3,0.4,0.5,0.7c0.1,0.3,0.2,0.6,0.3,1c0.1,0.4,0.1,0.8,0.1,1.2c0,0.5,0,0.9-0.1,1.2c-0.1,0.4-0.1,0.7-0.3,1
			c-0.1,0.3-0.3,0.5-0.5,0.7c-0.2,0.2-0.4,0.2-0.7,0.2c-0.2,0-0.4,0-0.5-0.1c-0.2,0-0.3-0.1-0.4-0.2c-0.1-0.1-0.3-0.1-0.4-0.2v-4.4
			c0-0.1,0-0.2,0-0.3c0-0.1,0-0.2,0-0.2c0-0.1,0-0.1,0-0.2c0.1-0.1,0.3-0.3,0.6-0.4c0.2-0.1,0.6-0.2,1-0.2
			C69.9,16.5,70.1,16.6,70.3,16.8z"/>
		<path class="st0" d="M75,23.3h1.9l2.8-5.4v5.4h2V16h-1.9l-2.8,5.4V18c0-0.4,0-0.7-0.1-1c0-0.3-0.1-0.5-0.2-0.6
			c-0.1-0.2-0.3-0.3-0.4-0.3C76.2,16,76,16,75.7,16h-1.9v0.5h0.2c0.5,0,0.8,0.1,0.9,0.4C75,17.2,75,17.5,75,18V23.3z"/>
		<path class="st0" d="M83.1,23.3h1.1l2.1-2.5l0.8,1.3c0.2,0.4,0.5,0.7,0.8,0.9c0.3,0.2,0.7,0.3,1.2,0.3h1.5V23
			c-0.2,0-0.5-0.2-0.7-0.4c-0.3-0.2-0.5-0.5-0.7-0.9l-1.5-2.5l2.7-3.3h-1.1l-2.1,2.5l-0.8-1.3c-0.2-0.4-0.5-0.7-0.8-0.9
			c-0.3-0.2-0.7-0.3-1.2-0.3h-1.5v0.3c0.2,0,0.5,0.2,0.7,0.4c0.3,0.2,0.5,0.5,0.7,0.9l1.5,2.5L83.1,23.3z"/>
		<path class="st0" d="M93.9,19.7c0.1,0,0.2-0.1,0.4-0.1c0.1,0,0.2,0,0.3,0c0.2,0,0.4,0,0.5,0.1c0.2,0.1,0.3,0.1,0.5,0.3
			c0.1,0.1,0.2,0.3,0.3,0.5c0.1,0.2,0.1,0.5,0.1,0.7c0,0.3,0,0.6-0.1,0.8c-0.1,0.2-0.2,0.4-0.3,0.5c-0.1,0.1-0.3,0.2-0.5,0.3
			c-0.2,0.1-0.3,0.1-0.5,0.1c-0.1,0-0.2,0-0.3,0c-0.1,0-0.3,0-0.4-0.1V19.7z M91.8,23.3h3.1c1,0,1.8-0.2,2.4-0.6
			c0.6-0.4,0.9-0.9,0.9-1.6c0-0.7-0.3-1.3-0.9-1.6c-0.6-0.4-1.4-0.6-2.4-0.6h-1V18c0-0.4,0-0.7-0.1-1c0-0.3-0.1-0.5-0.2-0.6
			c-0.1-0.2-0.3-0.3-0.4-0.3C93,16,92.7,16,92.5,16h-1.9v0.5h0.2c0.5,0,0.8,0.1,0.9,0.4c0.1,0.3,0.2,0.7,0.2,1.1V23.3z M101,16h-2
			v5.3c0,0.4,0,0.7,0.1,1c0,0.3,0.1,0.5,0.2,0.6c0.1,0.2,0.3,0.3,0.4,0.3c0.2,0.1,0.4,0.1,0.7,0.1h1.9v-0.5h-0.2
			c-0.5,0-0.8-0.1-0.9-0.4c-0.1-0.3-0.2-0.7-0.2-1.1V16z"/>
	</g>
</g>
</svg>
