<svg version="1.1" id="Layer_1" xmlns="http://www.w3.org/2000/svg" x="0" y="0" viewBox="0 0 198.4 34.5" style="enable-background:new 0 0 198.4 34.5" xml:space="preserve"><style>.st0{fill:#060606}</style><path class="st0" d="M10.9 4.2C10.1 3.2 9.1 2.4 8 2c-1.2-.5-2.7-.8-4.6-.8H0v1.5h.2c.9 0 1.6.1 2.1.3.7.3 1.1.6 1.5 1 .3.4.6.9.7 1.4.1.5.2 1.1.2 1.7v26.4h2.5V9.3L28 33.7h2.3V1.2h-2.5v22.5L10.9 4.2zM50.9 1.2h-2.2L34.2 33.5h2.5l4-8.9h13.1l1.1 2.7c.6 1.4 1.3 2.5 2 3.4.8.8 1.6 1.5 2.5 1.9.9.4 1.8.7 2.7.9.9.1 1.7.2 2.5.2.4 0 .8 0 1.3-.1.5 0 .8-.1 1.1-.2v-1.2c-1.1-.1-2.1-.6-2.9-1.5-.9-.8-1.6-2-2.2-3.4l-11-26.1zm-3.4 8.4 5.4 12.8H41.8l5.7-12.8zM76.9 34h2L93 1.2h-2.5l-10.4 24-7.7-18.3c-.6-1.4-1.3-2.5-2-3.3-.8-.8-1.6-1.4-2.4-1.9-.9-.4-1.7-.7-2.6-.8-.9-.1-1.8-.2-2.6-.2h-2.1v1c1 .1 1.8.6 2.6 1.3.7.7 1.5 2 2.3 3.8L76.9 34zM109.9 3.5c.8.2 1.4.6 2.1 1.1.6.5 1.1 1.2 1.5 2.1.4.9.6 1.9.6 3.2 0 1.3-.2 2.3-.6 3.2-.4.9-.9 1.6-1.5 2.1s-1.4.9-2.1 1.1c-.8.2-1.6.3-2.4.3h-2.9V3.5c.3 0 .6-.1 1-.1.3-.1.6-.1 1-.1h1.2c.6-.1 1.4 0 2.1.2zm1.5 23.4c.8 1.3 1.6 2.5 2.4 3.4.8.9 1.5 1.6 2.3 2.2.8.6 1.6.9 2.4 1.2.8.2 1.6.3 2.5.3.6 0 1.3 0 1.9-.1.7-.1 1.1-.2 1.4-.3v-1.2c-.4-.1-.8-.2-1.2-.4-.4-.2-.9-.5-1.4-.9-.5-.4-1.1-.9-1.6-1.6-.6-.7-1.2-1.5-1.8-2.6l-5.2-8.6c.9-.2 1.8-.5 2.8-.9.9-.4 1.8-.9 2.6-1.5s1.4-1.4 1.9-2.3c.5-.9.7-2 .7-3.3 0-1.3-.2-2.5-.7-3.4-.4-1-1-1.8-1.7-2.4-.7-.7-1.5-1.2-2.5-1.6-.9-.4-1.9-.7-2.9-1-1-.2-1.9-.4-2.9-.4-.9-.1-1.8-.1-2.6-.1H94.2v1.5h.5c1.5 0 2.4.4 2.8 1.3.4.9.6 2.1.6 3.5v25.9h6.4V18.7h2l4.9 8.2zM148.6 28.4c-1.6 2.6-3.9 3.9-6.9 3.9-3 0-5.3-1.3-6.9-3.9-1.6-2.6-2.4-6.3-2.4-11 0-4.8.8-8.4 2.4-11 1.6-2.6 3.9-3.9 6.9-3.9 3 0 5.3 1.3 6.9 3.9 1.6 2.6 2.5 6.3 2.5 11s-.8 8.4-2.5 11zm-21.9-4.3c.8 2.1 1.9 3.9 3.3 5.4 1.4 1.5 3.1 2.7 5.1 3.6 2 .9 4.2 1.3 6.7 1.3s4.7-.4 6.7-1.3 3.7-2.1 5.1-3.6c1.4-1.5 2.5-3.3 3.3-5.4.8-2.1 1.2-4.3 1.2-6.8 0-2.4-.4-4.7-1.2-6.8-.8-2.1-1.9-3.9-3.3-5.4-1.4-1.5-3.1-2.7-5.1-3.6-2-.9-4.2-1.3-6.7-1.3s-4.7.4-6.7 1.3-3.7 2.1-5.1 3.6c-1.4 1.5-2.5 3.3-3.3 5.4-.8 2.1-1.2 4.3-1.2 6.8s.4 4.7 1.2 6.8zM164.2.4c-.5 3.5-1.8 8.6-2.9 11.5l2.7-.3c1.4-2.3 3.5-7.5 4.6-11.6l-4.4.4zM176 1.2c-.9 0-1.5.1-2.1.3-.5.2-1 .5-1.3.9-.3.4-.5.8-.6 1.2-.1.5-.2 1-.2 1.4v4.2h1.5c0-2.2.5-3.7 1.5-4.6 1-.9 2.4-1.3 4.1-1.3h10.7l-18.3 28.6v1.6h26.8v-2.2h-19l19.2-30.1H176z"/></svg>